<svg id="glossbosslogo" xmlns="http://www.w3.org/2000/svg" width="319" height="148"><g fill="none" fill-rule="evenodd"><path fill="#585858" d="M0 71.252c.165-.31.176-.65.2-.987.054-.836.08-1.674.16-2.508.128-1.37.277-2.736.44-4.1.18-1.485.448-2.955.737-4.422.75-3.8 1.806-7.513 3.158-11.14C7.098 41.65 10.348 35.66 14.44 30.13c.115-.156.204-.34.424-.446.126.15.144.333.19.494.57 1.99 1.13 3.985 1.694 5.978l7.98 28.17c1.97 6.955 3.933 13.913 5.91 20.867 1.582 5.567 4.104 10.664 7.72 15.196 6.026 7.552 13.674 12.692 22.967 15.36 1.722.495 3.473.866 5.246 1.136 1.46.222 2.92.416 4.394.47.917.03 1.834.085 2.75.085 1.196 0 2.39-.09 3.58-.2 4.92-.45 9.63-1.708 14.15-3.678 4.843-2.11 9.115-5.066 12.89-8.75 4.13-4.033 7.356-8.69 9.685-13.97.086-.198.157-.4.253-.645-.138-.017-.23-.035-.32-.037-.2-.005-.4-.002-.6-.002h-39.97c-.24 0-.483.022-.718-.01-.232-.033-.47-.094-.682-.193-.33-.153-.525-.44-.53-.806-.004-.255.033-.517.098-.763.12-.45.4-.822.664-1.197l10.314-14.61c.402-.57.798-1.146 1.21-1.71.795-1.09 1.835-1.87 3.083-2.378.58-.235 1.175-.347 1.805-.346 8.258.007 16.515.004 24.773.004h32.929c.19.178.154.367.16.542.02.717.03 1.435.056 2.153.01.256.05.51.075.766v4.07c-.026.257-.066.512-.075.768-.03.857-.013 1.717-.083 2.57-.112 1.37-.264 2.737-.424 4.102-.27 2.277-.69 4.527-1.193 6.763-1.488 6.61-3.86 12.888-7.11 18.828-5.102 9.318-11.91 17.168-20.39 23.558-5.33 4.014-11.108 7.23-17.325 9.653-3.1 1.21-6.262 2.208-9.5 2.976-1.74.413-3.49.785-5.262 1.05-.885.134-1.77.27-2.66.385-.927.12-1.856.228-2.788.31-.813.073-1.63.104-2.446.154-.656.04-1.313.08-1.97.128-.196.015-.39.06-.587.093h-2.872c-.295-.038-.59-.09-.886-.11-1.63-.114-3.264-.177-4.89-.35-1.29-.135-2.572-.293-3.854-.48-1.813-.26-3.61-.606-5.394-1.017-4.394-1.012-8.66-2.413-12.79-4.224-10.018-4.39-18.636-10.7-25.852-18.917-5.904-6.722-10.417-14.283-13.554-22.66-1.364-3.646-2.423-7.38-3.18-11.198C1.23 86.512.96 84.96.76 83.4.594 82.137.475 80.866.36 79.595c-.075-.853-.106-1.71-.162-2.567C.176 76.69.16 76.35 0 76.04v-4.788"/><path fill="#44BCFF" d="M76.943.49c.955.06 1.913.088 2.866.168.93.078 1.86.195 2.79.314.868.11 1.737.228 2.6.377 1.352.233 2.706.46 4.046.756 3.813.843 7.537 1.983 11.168 3.428 5.523 2.197 10.702 5.024 15.538 8.48.162.116.323.233.483.352.09.103.103.12.108.14-2.786 10.22-5.574 20.38-8.363 30.54-.272.064-.352-.11-.46-.24-1.022-1.227-2.093-2.41-3.237-3.524-5.703-5.558-12.4-9.355-20.117-11.345-1.582-.408-3.182-.713-4.796-.963-2.67-.415-5.355-.533-8.048-.433-1.173.044-2.344.162-3.512.308-2.178.272-4.318.712-6.432 1.287-3.9 1.06-7.505 2.763-10.86 4.997-4.08 2.714-7.692 5.95-10.806 9.737-.075.09-.16.174-.243.26-.218-.09-.23-.276-.276-.436-.41-1.477-.81-2.958-1.216-4.437l-7.01-25.525c-.072-.265-.133-.534-.2-.807.17-.13.308-.242.454-.343 6.623-4.617 13.802-8.07 21.56-10.316 2.275-.66 4.576-1.213 6.905-1.64 1.388-.256 2.79-.444 4.19-.64.946-.13 1.897-.245 2.85-.326.952-.082 1.91-.11 2.864-.168.237-.014.47-.062.706-.095h5.865c.195.032.388.08.583.093zM96.56 66.902c-.206.084-.427.043-.64.043-2.553.004-5.105.01-7.658-.002-.834-.004-1.624.166-2.373.51-1.29.597-2.375 1.45-3.2 2.622-4.263 6.043-8.53 12.084-12.793 18.127-.195.276-.38.564-.523.87-.124.267-.213.56-.258.852-.098.637.235 1.143.854 1.32.227.066.468.088.704.113.158.017.32.003.48.003H89.04c.215 0 .43.01.66.017-.33.552-1.858 1.765-3.48 2.783-3.07 1.925-6.405 3.108-9.998 3.52-4.048.463-7.99-.025-11.783-1.545C53.574 91.78 47.227 80.32 49.72 68.582 52.13 57.242 62.478 48.78 74.9 49.5c3.795.22 7.352 1.308 10.64 3.23 3.348 1.956 6.076 4.564 8.185 7.817 1.305 2.014 2.708 5.16 2.836 6.355"/><path fill="#585858" d="M152.02 32.282h-9.14V29.09c0-2.012-.088-3.272-.26-3.778-.175-.507-.588-.76-1.24-.76-.564 0-.947.217-1.15.65-.203.435-.304 1.55-.304 3.345v16.87c0 1.58.1 2.617.304 3.116.203.5.608.75 1.216.75.666 0 1.118-.283 1.357-.847.24-.565.358-1.665.358-3.3v-4.17h-1.844v-5.34h10.704v18.868h-5.754l-.847-2.52c-.623 1.087-1.408 1.9-2.356 2.444-.948.542-2.067.814-3.355.814-1.535 0-2.972-.373-4.31-1.118-1.34-.746-2.357-1.67-3.052-2.77-.694-1.1-1.13-2.253-1.302-3.462-.174-1.21-.26-3.022-.26-5.44V32c0-3.36.18-5.798.542-7.318.362-1.52 1.4-2.913 3.116-4.18 1.715-1.266 3.933-1.9 6.655-1.9 2.677 0 4.898.55 6.664 1.65 1.766 1.1 2.917 2.407 3.453 3.92.535 1.513.803 3.71.803 6.59v1.52zm12.36-12.94v35.152h-9.033V19.34h9.032zm23.04 16.457v7.056c0 2.59-.13 4.49-.39 5.7-.26 1.208-.817 2.337-1.67 3.386-.855 1.05-1.952 1.824-3.29 2.324-1.34.5-2.878.75-4.615.75-1.94 0-3.582-.215-4.93-.642-1.345-.427-2.39-1.07-3.136-1.932-.747-.862-1.278-1.904-1.597-3.127-.318-1.223-.478-3.058-.478-5.504v-7.38c0-2.68.29-4.77.87-6.276.578-1.506 1.62-2.714 3.126-3.626 1.506-.912 3.43-1.368 5.776-1.368 1.97 0 3.66.293 5.07.88 1.41.585 2.5 1.35 3.268 2.29.767.94 1.292 1.91 1.574 2.91.282.998.423 2.518.423 4.56zm-8.77-2.172c0-1.477-.08-2.407-.24-2.79-.16-.384-.5-.576-1.02-.576s-.868.192-1.042.576c-.174.383-.26 1.313-.26 2.79v13.006c0 1.36.086 2.247.26 2.66.174.412.514.618 1.02.618.52 0 .865-.188 1.032-.564.166-.377.25-1.187.25-2.432V33.628zm29.62 1.26h-7.773v-1.564c0-1.332-.076-2.175-.228-2.53-.153-.354-.533-.532-1.14-.532-.493 0-.862.163-1.108.49-.246.325-.37.813-.37 1.464 0 .883.062 1.53.185 1.944.123.412.492.865 1.108 1.357.615.492 1.878 1.208 3.79 2.15 2.546 1.244 4.218 2.417 5.014 3.517.795 1.1 1.193 2.7 1.193 4.798 0 2.345-.304 4.115-.912 5.31-.607 1.193-1.623 2.112-3.05 2.757-1.425.643-3.144.965-5.156.965-2.23 0-4.136-.348-5.72-1.042-1.586-.695-2.676-1.636-3.27-2.823-.592-1.187-.89-2.982-.89-5.385v-1.39h7.774V46.2c0 1.548.098 2.554.293 3.017.196.464.584.695 1.163.695.622 0 1.056-.155 1.302-.467.246-.31.37-.966.37-1.965 0-1.375-.16-2.236-.478-2.583-.333-.348-2.034-1.376-5.103-3.084-2.576-1.447-4.147-2.76-4.71-3.94-.566-1.18-.848-2.58-.848-4.202 0-2.3.304-3.998.912-5.09.608-1.093 1.64-1.936 3.094-2.53 1.455-.593 3.145-.89 5.07-.89 1.91 0 3.535.242 4.874.727 1.34.485 2.367 1.126 3.084 1.922.716.795 1.15 1.533 1.302 2.213.152.68.228 1.745.228 3.192v1.672zm20.98 0h-7.774v-1.564c0-1.332-.076-2.175-.228-2.53-.152-.354-.532-.532-1.14-.532-.492 0-.86.163-1.107.49-.245.325-.368.813-.368 1.464 0 .883.06 1.53.185 1.944.123.412.492.865 1.107 1.357s1.878 1.208 3.79 2.15c2.546 1.244 4.218 2.417 5.014 3.517.797 1.1 1.195 2.7 1.195 4.798 0 2.345-.304 4.115-.912 5.31-.607 1.193-1.624 2.112-3.05 2.757-1.426.643-3.145.965-5.157.965-2.23 0-4.136-.348-5.72-1.042-1.586-.695-2.675-1.636-3.27-2.823-.592-1.187-.89-2.982-.89-5.385v-1.39h7.774V46.2c0 1.548.098 2.554.293 3.017.196.464.583.695 1.162.695.622 0 1.057-.155 1.303-.467.246-.31.37-.966.37-1.965 0-1.375-.16-2.236-.48-2.583-.332-.348-2.033-1.376-5.1-3.084-2.578-1.447-4.15-2.76-4.713-3.94-.565-1.18-.847-2.58-.847-4.202 0-2.3.304-3.998.912-5.09.608-1.093 1.64-1.936 3.094-2.53 1.456-.593 3.146-.89 5.07-.89 1.912 0 3.537.242 4.876.727 1.338.485 2.366 1.126 3.083 1.922.715.795 1.15 1.533 1.3 2.213.153.68.23 1.745.23 3.192v1.672z"/><path fill="#44BCFF" d="M242.117 19.34v8.317c.724-.84 1.53-1.466 2.42-1.878.89-.414 1.857-.62 2.9-.62 1.2 0 2.243.188 3.126.564.883.377 1.556.905 2.02 1.585.463.68.74 1.346.835 1.997.094.65.14 2.04.14 4.17V46.46c0 2.113-.14 3.687-.422 4.722-.282 1.035-.944 1.933-1.987 2.693-1.043.76-2.28 1.14-3.714 1.14-1.027 0-1.986-.225-2.876-.673-.89-.45-1.705-1.122-2.443-2.02l-.565 2.172h-8.207V19.34h8.772zm2.67 14.527c0-1.49-.094-2.465-.282-2.92-.188-.457-.557-.685-1.107-.685-.536 0-.883.2-1.042.597-.16.397-.24 1.4-.24 3.007v12.42c0 1.548.09 2.54.272 2.974.18.435.54.652 1.075.652.55 0 .908-.224 1.075-.673.166-.45.25-1.528.25-3.236V33.867zm31.554 1.932v7.056c0 2.59-.13 4.49-.39 5.7-.26 1.208-.818 2.337-1.672 3.386-.854 1.05-1.95 1.824-3.29 2.324-1.338.5-2.876.75-4.613.75-1.94 0-3.583-.215-4.93-.642-1.345-.427-2.39-1.07-3.137-1.932-.745-.862-1.277-1.904-1.596-3.127-.318-1.223-.477-3.058-.477-5.504v-7.38c0-2.68.29-4.77.868-6.276.58-1.506 1.622-2.714 3.127-3.626 1.505-.912 3.43-1.368 5.776-1.368 1.968 0 3.658.293 5.07.88 1.41.585 2.5 1.35 3.267 2.29.767.94 1.292 1.91 1.574 2.91.283.998.424 2.518.424 4.56zm-8.77-2.172c0-1.477-.08-2.407-.24-2.79-.16-.384-.5-.576-1.02-.576-.522 0-.87.192-1.043.576-.173.383-.26 1.313-.26 2.79v13.006c0 1.36.087 2.247.26 2.66.174.412.514.618 1.02.618.522 0 .866-.188 1.032-.564.166-.377.25-1.187.25-2.432V33.628zm29.62 1.26h-7.774v-1.564c0-1.332-.076-2.175-.228-2.53-.152-.354-.53-.532-1.14-.532-.492 0-.86.163-1.107.49-.245.325-.368.813-.368 1.464 0 .883.062 1.53.185 1.944.123.412.492.865 1.107 1.357s1.878 1.208 3.79 2.15c2.546 1.244 4.218 2.417 5.014 3.517.797 1.1 1.195 2.7 1.195 4.798 0 2.345-.304 4.115-.912 5.31-.607 1.193-1.624 2.112-3.05 2.757-1.426.643-3.145.965-5.157.965-2.23 0-4.136-.348-5.72-1.042-1.586-.695-2.675-1.636-3.27-2.823-.592-1.187-.89-2.982-.89-5.385v-1.39h7.774V46.2c0 1.548.098 2.554.293 3.017.196.464.583.695 1.162.695.622 0 1.057-.155 1.303-.467.246-.31.37-.966.37-1.965 0-1.375-.16-2.236-.48-2.583-.332-.348-2.033-1.376-5.1-3.084-2.578-1.447-4.148-2.76-4.713-3.94-.564-1.18-.847-2.58-.847-4.202 0-2.3.304-3.998.912-5.09.608-1.093 1.64-1.936 3.094-2.53 1.456-.593 3.146-.89 5.07-.89 1.912 0 3.537.242 4.876.727 1.34.485 2.366 1.126 3.083 1.922.715.795 1.15 1.533 1.302 2.213.152.68.228 1.745.228 3.192v1.672zm20.98 0h-7.774v-1.564c0-1.332-.076-2.175-.228-2.53-.152-.354-.532-.532-1.14-.532-.492 0-.862.163-1.108.49-.246.325-.37.813-.37 1.464 0 .883.063 1.53.186 1.944.123.412.492.865 1.107 1.357s1.878 1.208 3.79 2.15c2.547 1.244 4.218 2.417 5.015 3.517.796 1.1 1.194 2.7 1.194 4.798 0 2.345-.304 4.115-.912 5.31-.608 1.193-1.625 2.112-3.05 2.757-1.427.643-3.145.965-5.158.965-2.23 0-4.136-.348-5.72-1.042-1.586-.695-2.675-1.636-3.27-2.823-.592-1.187-.89-2.982-.89-5.385v-1.39h7.774V46.2c0 1.548.098 2.554.293 3.017.195.464.582.695 1.16.695.624 0 1.058-.155 1.304-.467.246-.31.37-.966.37-1.965 0-1.375-.16-2.236-.48-2.583-.332-.348-2.032-1.376-5.1-3.084-2.578-1.447-4.148-2.76-4.713-3.94-.563-1.18-.846-2.58-.846-4.202 0-2.3.304-3.998.912-5.09.608-1.093 1.64-1.936 3.094-2.53 1.455-.593 3.145-.89 5.07-.89 1.91 0 3.536.242 4.875.727 1.34.485 2.366 1.126 3.083 1.922.716.795 1.15 1.533 1.303 2.213.153.68.23 1.745.23 3.192v1.672z"/></g></svg>