<svg id="glossbosslogo" width="320px" height="150px" viewBox="0 0 320 150" version="1.1" xmlns="http://www.w3.org/2000/svg">
    <g id="Page-1" stroke="none" stroke-width="1" fill="none" fill-rule="evenodd">
        <g id="1024">
            <g id="logo_clear_376" sketch:type="MSLayerGroup" transform="translate(24.000000, 13.000000)">
                <path d="M0,60.2701067 C0.140666012,60.0074842 0.149855249,59.7173286 0.168940587,59.431056 C0.215593636,58.7211985 0.238213296,58.0092232 0.305365413,57.3014837 C0.415282824,56.1387436 0.541811548,54.9774155 0.681063831,53.8178523 C0.832332808,52.5573347 1.06135687,51.3088187 1.30734567,50.0627736 C1.94423048,46.8354109 2.84336197,43.6818226 3.99307689,40.6009496 C6.03662181,35.125411 8.80046154,30.0385113 12.2807083,25.3409566 C12.3782556,25.2092924 12.4538901,25.053625 12.6408557,24.9629073 C12.7482991,25.0892767 12.7638501,25.2456501 12.8030811,25.3822562 C13.2872832,27.0737712 13.7637098,28.7674042 14.2436707,30.4599781 C16.5052833,38.4353727 18.7676027,46.4104143 21.0292153,54.3858088 C22.7044839,60.2944628 24.3748044,66.2041758 26.0557279,72.1110649 C27.4015977,76.8396825 29.5458708,81.1683655 32.6210843,85.0180447 C37.7458511,91.4335885 44.2504171,95.7989822 52.1538677,98.0655135 C53.6177839,98.4855683 55.1071471,98.800786 56.6148889,99.0302277 C57.8554358,99.2190759 59.0966897,99.383921 60.351374,99.4283974 C61.1310454,99.4559304 61.9103634,99.5018187 62.6896813,99.5014657 C63.7072126,99.5011127 64.721563,99.4238085 65.73556,99.3309729 C69.9187834,98.9479817 73.9231701,97.8801952 77.7685123,96.2070355 C81.8867042,94.4145661 85.5199871,91.9041205 88.7295048,88.7741824 C92.2415605,85.3494998 94.9859615,81.3925124 96.9673023,76.9078091 C97.0411697,76.7408461 97.1016066,76.5682353 97.182896,76.3610318 C97.0659099,76.3469123 96.9885083,76.3317338 96.9107532,76.3296159 C96.7411057,76.32538 96.5714583,76.327851 96.4018108,76.327851 L62.4076425,76.327851 C62.2040655,76.327851 61.9973077,76.3469123 61.7976185,76.3190263 C61.6000499,76.2914933 61.3978867,76.2396041 61.2176363,76.1559461 C60.9366577,76.0253409 60.7716048,75.7821326 60.7666568,75.4711508 C60.7631225,75.2554756 60.7949314,75.0327406 60.8504202,74.8237722 C60.9522087,74.4414869 61.1886548,74.1259163 61.4137911,73.8075218 C64.3377356,69.6705109 67.2613267,65.533853 70.1852712,61.3971951 C70.5273936,60.9128965 70.8642145,60.4247151 71.2141123,59.9457114 C71.8905816,59.0187668 72.7752223,58.3562097 73.8362258,57.9255652 C74.3278499,57.7257744 74.8353786,57.6308208 75.3708283,57.6315268 C82.393526,57.6371746 89.4162236,57.6350567 96.4392746,57.6350567 L123.817899,57.6350567 L124.443474,57.6350567 C124.603579,57.7864882 124.573891,57.9470974 124.578485,58.0949991 C124.597217,58.7046081 124.605346,59.3145702 124.626906,59.9238262 C124.634328,60.1412664 124.668611,60.3580005 124.690877,60.5750877 L124.690877,64.0315391 C124.668964,64.2489793 124.634681,64.4657135 124.626906,64.6835066 C124.600752,65.4110134 124.615596,66.1416971 124.556219,66.866027 C124.461499,68.029826 124.33179,69.1908012 124.195365,70.3503644 C123.967048,72.2840287 123.609021,74.1954548 123.181368,76.0948794 C121.916081,81.709142 119.899043,87.0410148 117.133436,92.086615 C112.795763,100.00059 107.006544,106.668166 99.7926393,112.095699 C95.2616386,115.50485 90.347164,118.235559 85.0598184,120.294181 C82.424628,121.319962 79.7343022,122.168544 76.9814188,122.820864 C75.4998311,123.172087 74.0118816,123.48801 72.505907,123.714275 C71.752743,123.827231 70.9999324,123.943364 70.2446478,124.039729 C69.4554338,124.140684 68.664806,124.232813 67.872411,124.303411 C67.1807442,124.364831 66.4858965,124.390599 65.7924625,124.43331 C65.2340397,124.467903 64.6756168,124.500378 64.1175474,124.54203 C63.9500205,124.554385 63.7842608,124.593919 63.6177943,124.621099 L61.174871,124.621099 C60.9239341,124.588978 60.6737041,124.544148 60.421707,124.526852 C59.0348391,124.430839 57.6458506,124.377538 56.2621635,124.231401 C55.1668772,124.115622 54.0754786,123.981133 52.9854937,123.823701 C51.443469,123.600966 49.9148748,123.307987 48.3979439,122.958882 C44.6618122,122.099358 41.0327704,120.909085 37.5207148,119.37112 C29.0015852,115.641103 21.6724619,110.282403 15.5358188,103.303492 C10.5149611,97.5935695 6.67704094,91.1716719 4.00933477,84.0554484 C2.84901689,80.95975 1.94847167,77.7888653 1.30522508,74.5449122 C1.04474555,73.2325055 0.816781792,71.915157 0.644660315,70.5893368 C0.5050546,69.5151965 0.403972994,68.4354084 0.307132573,67.3563263 C0.24210105,66.6312904 0.215947068,65.9027247 0.168587155,65.1759239 C0.149855249,64.8892982 0.13713169,64.6002016 0,64.3365202 L0,60.2701067" id="Fill-1" fill="#585858" sketch:type="MSShapeGroup"></path>
                <path d="M65.4362029,0.166609995 C66.2483901,0.217087176 67.0626978,0.241090311 67.8731178,0.308863868 C68.6662197,0.375225476 69.4568475,0.474767888 70.246415,0.57572225 C70.9850883,0.67032284 71.724115,0.769159278 72.4574868,0.89588171 C73.6075551,1.09496653 74.7597441,1.28805058 75.898856,1.53902453 C79.1419498,2.25452974 82.3087022,3.22347982 85.3962858,4.45011061 C90.0937531,6.31635434 94.4978716,8.71772679 98.610762,11.653169 C98.7486006,11.7516524 98.8857323,11.8515478 99.0218036,11.9525022 C99.0992053,12.0396901 99.1094548,12.0541625 99.1133426,12.070047 C96.7439332,20.7507101 94.3734635,29.3805431 92.0012266,38.010023 C91.7697285,38.065442 91.702223,37.9175404 91.6103306,37.8074083 C90.7408874,36.7653899 89.8300927,35.7611411 88.8574473,34.8140762 C84.0069439,30.0928714 78.3113842,26.8679796 71.7488552,25.1775235 C70.4036923,24.83089 69.0429784,24.5725033 67.6702478,24.359652 C65.3994459,24.0073707 63.116274,23.9071223 60.82568,23.9918393 C59.8279409,24.0289029 58.831969,24.1291513 57.8384711,24.2530499 C55.9868398,24.4839035 54.1666641,24.8577171 52.3684011,25.3462515 C49.0528537,26.246722 45.9857692,27.6932639 43.1321577,29.5902175 C39.664281,31.8955774 36.5915415,34.6449953 33.9429207,37.8607094 C33.8789495,37.9387196 33.8064959,38.00967 33.7365163,38.0820324 C33.5520247,38.0047282 33.5407149,37.8480019 33.5028976,37.7124547 C33.1547669,36.457232 32.8140583,35.1998913 32.468755,33.9436096 C30.4817593,26.7169011 28.4940566,19.4901925 26.5074143,12.263484 C26.4452102,12.0379251 26.3932557,11.8091894 26.3356462,11.5776297 C26.4816137,11.4674977 26.5989532,11.3721911 26.7226545,11.2864152 C32.3549499,7.36472656 38.4608444,4.43281423 45.0580097,2.52385903 C46.9930509,1.96366822 48.9500049,1.49419515 50.9302855,1.13026526 C52.1114559,0.913531074 53.3035827,0.753980825 54.4935888,0.588429792 C55.2987074,0.476532825 56.1070068,0.379814311 56.9167199,0.310628804 C57.72714,0.241443298 58.5414477,0.218499125 59.3532815,0.168021944 C59.5543844,0.155667389 59.7533667,0.115073852 59.9534093,0.0871878575 L64.9410444,0.0871878575 C65.1060972,0.114720865 65.2700898,0.156373364 65.4362029,0.166609995 Z" id="Fill-4" fill="#44BCFF" sketch:type="MSShapeGroup"></path>
                <path d="M82.1203229,56.5750359 C81.9436068,56.6463393 81.7562877,56.6113936 81.574977,56.6117466 C79.4038431,56.6145705 77.2330625,56.6202183 75.062282,56.6096286 C74.3529436,56.6064518 73.681069,56.7504706 73.0441842,57.044156 C71.9471307,57.5503397 71.0253795,58.2743166 70.3227564,59.2697408 C66.6979558,64.4032347 63.0682072,69.5335518 59.4434067,74.6670458 C59.2780004,74.9014294 59.1196628,75.1460495 58.9991424,75.4051422 C58.8938196,75.632113 58.8178317,75.881675 58.779661,76.1291191 C58.696251,76.6702486 58.9797036,77.0998341 59.5056107,77.2509127 C59.6985847,77.3063317 59.9035754,77.32504 60.1046783,77.3465722 C60.2389825,77.3606917 60.3757608,77.3493961 60.5114787,77.3493961 C65.5825238,77.3497491 70.6532155,77.3493961 75.7242605,77.3501021 C75.9062781,77.3501021 76.0886491,77.3585738 76.284804,77.3631626 C76.0031185,77.8319297 74.7046087,78.8630056 73.3248094,79.7274714 C70.715773,81.3621555 67.8780659,82.3674633 64.8226446,82.7165677 C61.3798616,83.1101485 58.0279107,82.6960944 54.8021351,81.404867 C45.5630643,77.7062663 40.164741,67.9715831 42.2853341,58.0018105 C44.334534,48.3687877 53.1332283,41.1819667 63.6976699,41.7936937 C66.9255661,41.9804239 69.9505923,42.9052506 72.7476546,44.5378167 C75.5941975,46.1989749 77.9144798,48.414323 79.7077947,51.1775074 C80.8179252,52.8880838 82.0114658,55.5601975 82.1203229,56.5750359" id="Fill-5" fill="#44BCFF" sketch:type="MSShapeGroup"></path>
                <path d="M129.284929,27.1692556 L121.510974,27.1692556 L121.510974,24.4582513 C121.510974,22.749265 121.437113,21.6796277 121.289389,21.2493074 C121.141664,20.8189871 120.790824,20.6038302 120.236858,20.6038302 C119.756754,20.6038302 119.430534,20.7882504 119.258189,21.1570963 C119.085844,21.5259423 118.999673,22.4726328 118.999673,23.9971961 L118.999673,38.3267905 C118.999673,39.6669309 119.085844,40.5490742 119.258189,40.9732471 C119.430534,41.39742 119.775219,41.6095032 120.292254,41.6095032 C120.858531,41.6095032 121.243224,41.3697569 121.446345,40.8902572 C121.649466,40.4107574 121.751025,39.4763616 121.751025,38.0870418 L121.751025,34.5461382 L120.181462,34.5461382 L120.181462,30.0093554 L129.284929,30.0093554 L129.284929,46.0356328 L124.391585,46.0356328 L123.671432,43.8963368 C123.142086,44.8184518 122.474259,45.5100276 121.667931,45.971085 C120.861602,46.4321425 119.910641,46.6626678 118.815018,46.6626678 C117.51012,46.6626678 116.288335,46.3460797 115.149626,45.7128942 C114.010918,45.0797086 113.146128,44.2959226 112.55523,43.3615128 C111.964333,42.427103 111.595028,41.4466022 111.447303,40.4199809 C111.299579,39.3933596 111.225718,37.8534508 111.225718,35.8002082 L111.225718,26.9295069 C111.225718,24.0770981 111.379595,22.0054443 111.687354,20.7144834 C111.995113,19.4235225 112.878368,18.2401594 114.337146,17.1643587 C115.795924,16.0885579 117.682459,15.5506656 119.996807,15.5506656 C122.274224,15.5506656 124.163837,16.0178635 125.665701,16.9522733 C127.167565,17.8866831 128.146224,18.9962781 128.601708,20.2810915 C129.057191,21.565905 129.284929,23.4316229 129.284929,25.8783012 L129.284929,27.1692556 Z M139.795838,16.1777006 L139.795838,46.0356328 L132.11421,46.0356328 L132.11421,16.1777006 L139.795838,16.1777006 Z M159.391749,30.1568931 L159.391749,36.1506101 C159.391749,38.3513911 159.280958,39.965068 159.059371,40.9916893 C158.837785,42.0183106 158.363843,42.9772958 157.637531,43.8686735 C156.91122,44.7600513 155.978724,45.4178167 154.840016,45.8419896 C153.701307,46.2661625 152.393351,46.4782457 150.916107,46.4782457 C149.266519,46.4782457 147.869313,46.2968992 146.72445,45.9342006 C145.579586,45.5715021 144.690176,45.0243888 144.056192,44.2928443 C143.422208,43.5612998 142.969809,42.6760827 142.698981,41.6371665 C142.428153,40.5982504 142.292741,39.0398995 142.292741,36.9620672 L142.292741,30.6917171 C142.292741,28.4171669 142.538945,26.6405854 143.031359,25.3619194 C143.523774,24.0832534 144.410107,23.0566475 145.690384,22.2820709 C146.970662,21.5074944 148.607916,21.1202119 150.602195,21.1202119 C152.276404,21.1202119 153.713617,21.3691792 154.913877,21.8671213 C156.114138,22.3650634 157.040479,23.0136078 157.692928,23.8127741 C158.345377,24.6119403 158.791621,25.435684 159.031673,26.2840297 C159.271725,27.1323755 159.391749,28.423317 159.391749,30.1568931 L159.391749,30.1568931 Z M151.931707,28.3126724 C151.931707,27.0585961 151.864001,26.2686628 151.728587,25.9428489 C151.593173,25.617035 151.303884,25.4541304 150.860711,25.4541304 C150.417538,25.4541304 150.122094,25.617035 149.974369,25.9428489 C149.826645,26.2686628 149.752784,27.0585961 149.752784,28.3126724 L149.752784,39.3595541 C149.752784,40.5152714 149.826645,41.2683207 149.974369,41.6187243 C150.122094,41.969128 150.411383,42.1443272 150.842245,42.1443272 C151.285418,42.1443272 151.577785,41.9844964 151.719354,41.6648299 C151.860924,41.3451633 151.931707,40.6566612 151.931707,39.5993027 L151.931707,28.3126724 Z M177.12265,29.3823204 L170.512018,29.3823204 L170.512018,28.0544815 C170.512018,26.9233539 170.44739,26.2071887 170.318131,25.9059645 C170.188872,25.6047403 169.86573,25.4541304 169.348695,25.4541304 C168.930143,25.4541304 168.616233,25.5924456 168.406957,25.8690801 C168.197681,26.1457146 168.093044,26.5606601 168.093044,27.113929 C168.093044,27.8639158 168.145362,28.4141028 168.250001,28.7645065 C168.354639,29.1149102 168.668548,29.4991189 169.191739,29.9171444 C169.714929,30.3351698 170.788992,30.9437565 172.41396,31.7429228 C174.580584,32.8002813 176.002409,33.7961505 176.679479,34.7305603 C177.356549,35.66497 177.695079,37.0235323 177.695079,38.8062879 C177.695079,40.7980561 177.436565,42.3010809 176.91953,43.3154073 C176.402495,44.3297337 175.537705,45.110446 174.325134,45.6575675 C173.112563,46.2046891 171.65073,46.4782457 169.939589,46.4782457 C168.043794,46.4782457 166.421928,46.1831734 165.073943,45.5930198 C163.725958,45.0028663 162.799617,44.203712 162.294892,43.195533 C161.790168,42.187354 161.537809,40.6628135 161.537809,38.6218658 L161.537809,37.4415646 L168.148441,37.4415646 L168.148441,38.9907099 C168.148441,40.3062606 168.231534,41.1607409 168.397724,41.5541766 C168.563914,41.9476123 168.893211,42.1443272 169.385626,42.1443272 C169.914971,42.1443272 170.284277,42.0121594 170.493553,41.7478198 C170.702829,41.4834802 170.807466,40.9271458 170.807466,40.0788001 C170.807466,38.9107879 170.672054,38.1792543 170.401226,37.8841775 C170.118087,37.5891008 168.671641,36.7161784 166.061845,35.2653842 C163.8706,34.0358977 162.534946,32.9201553 162.054842,31.9181238 C161.574737,30.9160922 161.334689,29.7265818 161.334689,28.3495568 C161.334689,26.3946732 161.593203,24.9531218 162.110238,24.0248594 C162.627273,23.0965971 163.504373,22.3804319 164.741565,21.8763424 C165.978756,21.3722529 167.415969,21.1202119 169.053248,21.1202119 C170.678216,21.1202119 172.060033,21.3261478 173.198741,21.7380258 C174.33745,22.1499039 175.211473,22.6939435 175.820836,23.3701611 C176.430199,24.0463787 176.799504,24.6734075 176.928763,25.2512662 C177.058021,25.8291249 177.12265,26.7327839 177.12265,27.9622705 L177.12265,29.3823204 Z M194.964343,29.3823204 L188.353712,29.3823204 L188.353712,28.0544815 C188.353712,26.9233539 188.289083,26.2071887 188.159824,25.9059645 C188.030566,25.6047403 187.707423,25.4541304 187.190388,25.4541304 C186.771836,25.4541304 186.457926,25.5924456 186.24865,25.8690801 C186.039374,26.1457146 185.934737,26.5606601 185.934737,27.113929 C185.934737,27.8639158 185.987056,28.4141028 186.091694,28.7645065 C186.196332,29.1149102 186.510241,29.4991189 187.033432,29.9171444 C187.556622,30.3351698 188.630685,30.9437565 190.255653,31.7429228 C192.422277,32.8002813 193.844102,33.7961505 194.521172,34.7305603 C195.198242,35.66497 195.536772,37.0235323 195.536772,38.8062879 C195.536772,40.7980561 195.278258,42.3010809 194.761223,43.3154073 C194.244188,44.3297337 193.379398,45.110446 192.166827,45.6575675 C190.954257,46.2046891 189.492423,46.4782457 187.781283,46.4782457 C185.885487,46.4782457 184.263621,46.1831734 182.915636,45.5930198 C181.567651,45.0028663 180.641311,44.203712 180.136586,43.195533 C179.631861,42.187354 179.379502,40.6628135 179.379502,38.6218658 L179.379502,37.4415646 L185.990134,37.4415646 L185.990134,38.9907099 C185.990134,40.3062606 186.073227,41.1607409 186.239417,41.5541766 C186.405607,41.9476123 186.734905,42.1443272 187.227319,42.1443272 C187.756665,42.1443272 188.12597,42.0121594 188.335246,41.7478198 C188.544522,41.4834802 188.649159,40.9271458 188.649159,40.0788001 C188.649159,38.9107879 188.513747,38.1792543 188.242919,37.8841775 C187.959781,37.5891008 186.513335,36.7161784 183.903538,35.2653842 C181.712293,34.0358977 180.376639,32.9201553 179.896535,31.9181238 C179.416431,30.9160922 179.176382,29.7265818 179.176382,28.3495568 C179.176382,26.3946732 179.434896,24.9531218 179.951931,24.0248594 C180.468966,23.0965971 181.346067,22.3804319 182.583258,21.8763424 C183.820449,21.3722529 185.257663,21.1202119 186.894941,21.1202119 C188.519909,21.1202119 189.901726,21.3261478 191.040435,21.7380258 C192.179143,22.1499039 193.053166,22.6939435 193.662529,23.3701611 C194.271892,24.0463787 194.641197,24.6734075 194.770456,25.2512662 C194.899715,25.8291249 194.964343,26.7327839 194.964343,27.9622705 L194.964343,29.3823204 Z" id="Gloss" fill="#585858" sketch:type="MSShapeGroup"></path>
                <path d="M205.907382,16.1777006 L205.907382,23.2410657 C206.5229,22.5279635 207.209192,21.9962185 207.96628,21.6458148 C208.723367,21.2954111 209.545071,21.1202119 210.431417,21.1202119 C211.453178,21.1202119 212.33951,21.2800428 213.090442,21.5997093 C213.841375,21.9193758 214.413798,22.3681317 214.807729,22.9459904 C215.201661,23.5238491 215.438632,24.0894044 215.518649,24.6426734 C215.598667,25.1959423 215.638675,26.3762317 215.638675,28.183577 L215.638675,39.2120164 C215.638675,41.0070668 215.51865,42.3441134 215.278598,43.2231963 C215.038546,44.1022792 214.475356,44.8645494 213.58901,45.5100299 C212.702664,46.1555103 211.650143,46.4782457 210.431417,46.4782457 C209.557382,46.4782457 208.741832,46.2876782 207.984745,45.9065373 C207.227658,45.5253965 206.53521,44.9536938 205.907382,44.1914121 L205.42728,46.0356328 L198.44734,46.0356328 L198.44734,16.1777006 L205.907382,16.1777006 Z M208.178632,28.5155367 C208.178632,27.2491655 208.098616,26.4223482 207.938582,26.0350599 C207.778547,25.6477717 207.464637,25.4541304 206.996843,25.4541304 C206.54136,25.4541304 206.245916,25.6231823 206.110502,25.9612911 C205.975088,26.2993999 205.907382,27.1508066 205.907382,28.5155367 L205.907382,39.0644788 C205.907382,40.3800294 205.98432,41.2222151 206.1382,41.591061 C206.29208,41.959907 206.596756,42.1443272 207.05224,42.1443272 C207.520034,42.1443272 207.824711,41.9537597 207.96628,41.5726188 C208.107849,41.191478 208.178632,40.2755242 208.178632,38.8247301 L208.178632,28.5155367 Z M235.01293,30.1568931 L235.01293,36.1506101 C235.01293,38.3513911 234.902138,39.965068 234.680552,40.9916893 C234.458965,42.0183106 233.985023,42.9772958 233.258712,43.8686735 C232.5324,44.7600513 231.599905,45.4178167 230.461196,45.8419896 C229.322487,46.2661625 228.014531,46.4782457 226.537288,46.4782457 C224.887699,46.4782457 223.490494,46.2968992 222.34563,45.9342006 C221.200766,45.5715021 220.311356,45.0243888 219.677372,44.2928443 C219.043389,43.5612998 218.59099,42.6760827 218.320162,41.6371665 C218.049334,40.5982504 217.913922,39.0398995 217.913922,36.9620672 L217.913922,30.6917171 C217.913922,28.4171669 218.160125,26.6405854 218.65254,25.3619194 C219.144954,24.0832534 220.031287,23.0566475 221.311565,22.2820709 C222.591843,21.5074944 224.229096,21.1202119 226.223375,21.1202119 C227.897584,21.1202119 229.334797,21.3691792 230.535058,21.8671213 C231.735318,22.3650634 232.661659,23.0136078 233.314108,23.8127741 C233.966557,24.6119403 234.412801,25.435684 234.652853,26.2840297 C234.892906,27.1323755 235.01293,28.423317 235.01293,30.1568931 L235.01293,30.1568931 Z M227.552887,28.3126724 C227.552887,27.0585961 227.485181,26.2686628 227.349767,25.9428489 C227.214353,25.617035 226.925064,25.4541304 226.481891,25.4541304 C226.038718,25.4541304 225.743274,25.617035 225.59555,25.9428489 C225.447825,26.2686628 225.373964,27.0585961 225.373964,28.3126724 L225.373964,39.3595541 C225.373964,40.5152714 225.447825,41.2683207 225.59555,41.6187243 C225.743274,41.969128 226.032563,42.1443272 226.463426,42.1443272 C226.906599,42.1443272 227.198966,41.9844964 227.340535,41.6648299 C227.482104,41.3451633 227.552887,40.6566612 227.552887,39.5993027 L227.552887,28.3126724 Z M252.74376,29.3823204 L246.133128,29.3823204 L246.133128,28.0544815 C246.133128,26.9233539 246.0685,26.2071887 245.939241,25.9059645 C245.809982,25.6047403 245.48684,25.4541304 244.969805,25.4541304 C244.551252,25.4541304 244.237343,25.5924456 244.028067,25.8690801 C243.81879,26.1457146 243.714154,26.5606601 243.714154,27.113929 C243.714154,27.8639158 243.766472,28.4141028 243.87111,28.7645065 C243.975748,29.1149102 244.289658,29.4991189 244.812848,29.9171444 C245.336039,30.3351698 246.410102,30.9437565 248.035069,31.7429228 C250.201693,32.8002813 251.623519,33.7961505 252.300589,34.7305603 C252.977659,35.66497 253.316189,37.0235323 253.316189,38.8062879 C253.316189,40.7980561 253.057675,42.3010809 252.54064,43.3154073 C252.023604,44.3297337 251.158814,45.110446 249.946244,45.6575675 C248.733673,46.2046891 247.271839,46.4782457 245.560699,46.4782457 C243.664903,46.4782457 242.043037,46.1831734 240.695053,45.5930198 C239.347068,45.0028663 238.420727,44.203712 237.916002,43.195533 C237.411277,42.187354 237.158919,40.6628135 237.158919,38.6218658 L237.158919,37.4415646 L243.76955,37.4415646 L243.76955,38.9907099 C243.76955,40.3062606 243.852644,41.1607409 244.018834,41.5541766 C244.185024,41.9476123 244.514321,42.1443272 245.006735,42.1443272 C245.536081,42.1443272 245.905386,42.0121594 246.114663,41.7478198 C246.323939,41.4834802 246.428575,40.9271458 246.428575,40.0788001 C246.428575,38.9107879 246.293163,38.1792543 246.022335,37.8841775 C245.739197,37.5891008 244.292751,36.7161784 241.682954,35.2653842 C239.49171,34.0358977 238.156055,32.9201553 237.675951,31.9181238 C237.195847,30.9160922 236.955799,29.7265818 236.955799,28.3495568 C236.955799,26.3946732 237.214312,24.9531218 237.731348,24.0248594 C238.248383,23.0965971 239.125483,22.3804319 240.362674,21.8763424 C241.599866,21.3722529 243.037079,21.1202119 244.674357,21.1202119 C246.299325,21.1202119 247.681143,21.3261478 248.819851,21.7380258 C249.95856,22.1499039 250.832582,22.6939435 251.441945,23.3701611 C252.051308,24.0463787 252.420614,24.6734075 252.549872,25.2512662 C252.679131,25.8291249 252.74376,26.7327839 252.74376,27.9622705 L252.74376,29.3823204 Z M270.585382,29.3823204 L263.974751,29.3823204 L263.974751,28.0544815 C263.974751,26.9233539 263.910122,26.2071887 263.780863,25.9059645 C263.651605,25.6047403 263.328462,25.4541304 262.811427,25.4541304 C262.392875,25.4541304 262.078965,25.5924456 261.869689,25.8690801 C261.660413,26.1457146 261.555776,26.5606601 261.555776,27.113929 C261.555776,27.8639158 261.608095,28.4141028 261.712733,28.7645065 C261.817371,29.1149102 262.13128,29.4991189 262.654471,29.9171444 C263.177661,30.3351698 264.251724,30.9437565 265.876692,31.7429228 C268.043316,32.8002813 269.465141,33.7961505 270.142211,34.7305603 C270.819281,35.66497 271.157811,37.0235323 271.157811,38.8062879 C271.157811,40.7980561 270.899297,42.3010809 270.382262,43.3154073 C269.865227,44.3297337 269.000437,45.110446 267.787866,45.6575675 C266.575296,46.2046891 265.113462,46.4782457 263.402322,46.4782457 C261.506526,46.4782457 259.88466,46.1831734 258.536675,45.5930198 C257.18869,45.0028663 256.26235,44.203712 255.757625,43.195533 C255.2529,42.187354 255.000541,40.6628135 255.000541,38.6218658 L255.000541,37.4415646 L261.611173,37.4415646 L261.611173,38.9907099 C261.611173,40.3062606 261.694266,41.1607409 261.860456,41.5541766 C262.026646,41.9476123 262.355944,42.1443272 262.848358,42.1443272 C263.377704,42.1443272 263.747009,42.0121594 263.956285,41.7478198 C264.165561,41.4834802 264.270198,40.9271458 264.270198,40.0788001 C264.270198,38.9107879 264.134786,38.1792543 263.863958,37.8841775 C263.58082,37.5891008 262.134374,36.7161784 259.524577,35.2653842 C257.333332,34.0358977 255.997678,32.9201553 255.517574,31.9181238 C255.03747,30.9160922 254.797421,29.7265818 254.797421,28.3495568 C254.797421,26.3946732 255.055935,24.9531218 255.57297,24.0248594 C256.090005,23.0965971 256.967106,22.3804319 258.204297,21.8763424 C259.441488,21.3722529 260.878702,21.1202119 262.51598,21.1202119 C264.140948,21.1202119 265.522765,21.3261478 266.661474,21.7380258 C267.800182,22.1499039 268.674205,22.6939435 269.283568,23.3701611 C269.892931,24.0463787 270.262236,24.6734075 270.391495,25.2512662 C270.520754,25.8291249 270.585382,26.7327839 270.585382,27.9622705 L270.585382,29.3823204 Z" id="boss" fill="#44BCFF" sketch:type="MSShapeGroup"></path>
            </g>
        </g>
    </g>
</svg>