<svg xmlns="http://www.w3.org/2000/svg" class="youtube" viewBox="0 0 100 100"><path d="M26.8 53.6h4v21h3.5v-21h4v-3.4H26.8M57.8 56.2c-1.2 0-2.3.6-3.4 2v-8H51v24.4h3.4v-1.8c1 1.4 2.2 2 3.4 2 1.3 0 2.2-.7 2.6-2 .3-.8.4-2 .4-3.7v-7c0-1.8 0-3-.4-3.8-.4-1.3-1.3-2-2.6-2zm-.3 13.2c0 1.6-.5 2.4-1.5 2.4-.5 0-1-.2-1.6-.8V60c.5-.6 1-1 1.6-1 1 0 1.5 1 1.5 2.6v7.8zM45 70.3c-.8 1-1.5 1.5-2 1.5-.6 0-.8-.2-1-.7V56.5H39v14.4c0 1.3 0 2 .3 2.7.4 1 1 1.3 2.2 1.3 1.2 0 2.4-.7 3.7-2.2v2H48V56.4H45v14zM47.8 39.6c1 0 1.6-1 1.6-2.6v-7.7c0-1.7-.5-2.5-1.6-2.5-1 0-1.6.8-1.6 2.5V37c0 1.7.5 2.6 1.6 2.6z"/><path d="M50 1C23 1 1 23 1 50s22 49 49 49 49-22 49-49S77 1 50 1zm5.4 23h3.4v14.8c0 .5.3.8.8.8.6 0 1.3-.5 2-1.6V24H65v18.4h-3.3v-2C60.4 42 59 42.6 58 42.6c-1.2 0-2-.4-2.3-1.3-.2-.6-.3-1.5-.3-2.8V24zM43 30c0-2 .2-3.4 1-4.4.8-1.2 2-1.8 3.8-1.8 1.6 0 3 .6 4 1.8.6 1 1 2.4 1 4.4v6.4c0 2-.4 3.4-1 4.3-1 1.3-2.4 2-4 2-1.7 0-3-.7-4-2-.6-1-1-2.3-1-4.3V30zm-9-12.3l2.6 9.7 2.5-9.7H43l-4.4 14.7v10h-3.7v-10c-.3-1.8-1-4.4-2.3-7.8l-2.3-7h4zm42.3 58.5c-.7 3-3 5-6 5.3-6.6.8-13.5.8-20.3.8-6.8 0-13.7 0-20.4-.8-3-.3-5.2-2.4-6-5.3-1-4-1-8.7-1-13 0-4.2 0-8.7 1-12.8.8-3 3-5 6-5.4 6.7-.7 13.6-.7 20.4-.7 6.8 0 13.7 0 20.4.7 3 .4 5.3 2.5 6 5.4 1 4 1 8.6 1 13 0 4 0 8.7-1 12.8z"/><path d="M68.3 56.2c-1.7 0-3 .6-4 1.8-.7 1-1 2.4-1 4.3v6.4c0 2 .4 3.4 1 4.3 1 1.2 2.4 1.8 4 1.8 1.8 0 3-.6 4-2 .5-.5.7-1.2.8-2 .2-.2.2-1 .2-2v-.5h-3.4v2.2c-.2 1-.7 1.3-1.5 1.3-1 0-1.7-.8-1.7-2.5V66h6.6v-3.7c0-2-.3-3.3-1-4.3-1-1.2-2.3-1.8-4-1.8zm1.6 7h-3.4v-1.5c0-1.7.6-2.6 1.7-2.6 1 0 1.6 1 1.6 2.7v1.6z"/></svg>