<?xml version="1.0" encoding="UTF-8" standalone="no"?><!DOCTYPE svg PUBLIC "-//W3C//DTD SVG 1.1//EN" "http://www.w3.org/Graphics/SVG/1.1/DTD/svg11.dtd"><svg width="100%" height="100%" viewBox="0 0 4352 1802" version="1.1" xmlns="http://www.w3.org/2000/svg" xmlns:xlink="http://www.w3.org/1999/xlink" xml:space="preserve" xmlns:serif="http://www.serif.com/" style="fill-rule:evenodd;clip-rule:evenodd;stroke-linejoin:round;stroke-miterlimit:1.41421;"><rect id="ArtBoard1" x="0" y="0" width="4351.23" height="1801.35" style="fill:none;"/><g><clipPath id="_clip1"><path d="M4351.23,939.281l-4400.65,165.753l0,559.145l4393.99,0l6.666,-724.898Z"/></clipPath><g clip-path="url(#_clip1)"><g><path d="M635.923,1568.8l9.845,-1.375c57.033,-7.965 100.084,11.172 129.154,57.412c1.084,45.765 -3.239,69.327 -12.971,70.686l-3.395,0.474c-13.352,1.865 -36.772,-1.44 -70.258,-9.915l-65.063,2.511c-117.007,16.341 -208.836,78.313 -275.488,185.914c-27.889,51.426 -38.056,104.184 -30.502,158.275c4.204,30.1 28.825,42.005 73.862,35.715c27.159,-3.793 64.545,-17.782 112.159,-41.968l-0.426,-3.055l-3.395,0.474l-92.117,19.441c-0.821,-5.884 -10.48,-12.265 -28.977,-19.142l2.629,-3.482l-0.474,-3.394l-19.011,2.655l-0.901,-6.45l18.584,-5.711l-0.426,-3.055l-25.935,0.161l-0.901,-6.45l9.505,-1.328l-0.427,-3.055l-15.955,2.229l-0.474,-3.395l5.122,-10.406c-15.163,2.117 -23.045,1.026 -23.645,-3.274c-1.992,-14.258 125.651,-62.657 382.928,-145.198c24.668,-3.445 44.973,8.948 60.914,37.178l4.77,9.371c3.098,22.179 -8.665,47.818 -35.289,76.917c2.94,21.048 -44.595,71.411 -142.604,151.089c-46.355,34.854 -93.748,55.663 -142.181,62.428l-28.855,4.03c-96.186,13.433 -167.464,-26.912 -213.836,-121.035l-7.085,-28.429l-2.703,-19.35c-10.81,-77.401 36.142,-179.021 140.856,-304.859c80.341,-72.365 177.996,-116.576 292.966,-132.634Z" style="fill-rule:nonzero;"/><path d="M955.999,1479.11l17.992,-2.513c55.193,11.904 84.97,33.472 89.332,64.704c-10.482,24.075 -49.028,145.403 -115.639,363.981l-18.177,45.801l185.685,-38.393l24.53,-0.311l17.992,-2.513l0.854,6.111l-8.827,1.233l1.281,9.166l17.992,-2.513l0.853,6.11l-28.127,19.157l8.623,17.139l17.993,-2.513l30.999,23.705c0.758,5.432 -57.118,24.705 -173.628,57.821c-48.82,17.201 -114.879,43.963 -198.177,80.285l-3.056,0.427c-11.089,1.549 -32.473,-11.962 -64.152,-40.533l-0.426,-3.055l2.676,-3.142l-3.482,-2.629l-4.22,-30.214c-1.422,-10.184 5.939,-23.556 22.085,-40.117c70.494,-189.125 118.142,-347.718 142.942,-475.778l-4.335,-8.739c9.291,-25.986 22.764,-40.212 40.417,-42.677Z" style="fill-rule:nonzero;"/><path d="M1536.47,1425.03l3.394,-0.474c21.501,-3.003 46.12,14.671 73.857,53.021l3.869,2.921l2.133,15.276c1.36,9.732 -13.766,20.381 -45.376,31.949l0.427,3.055c58.677,55.026 91.793,109.584 99.347,163.675l2.181,15.616c18.712,133.98 -26.972,228.155 -137.053,282.523c-37.925,15.911 -69.788,25.668 -95.589,29.271l-35.984,5.026c-101.391,14.16 -181.617,-27.473 -240.679,-124.9c-6.527,-0.473 -13.434,-18.544 -20.723,-54.212l-3.082,-22.067c-14.034,-100.485 46.102,-201.87 180.409,-304.153c86.012,-56.544 156.968,-88.72 212.869,-96.527Zm-268.488,411.978l0.426,3.056c5.026,35.984 30.776,53.5 77.251,52.547l26.14,-3.651c70.385,-9.83 130.036,-59.347 178.953,-148.551c6.308,-22.57 8.839,-51.534 7.592,-86.893c-6.083,-28.685 -11.717,-45.895 -16.902,-51.631l1.775,-9.593c-10.246,-30.41 -16.727,-45.426 -19.443,-45.046c-62.847,17.545 -131.053,69.411 -204.618,155.596c-39.521,50.744 -56.58,95.466 -51.174,134.166Z" style="fill-rule:nonzero;"/><path d="M2063.05,1336.95l6.451,-0.901c9.505,-1.327 23.206,4.258 41.103,16.756l3.482,2.629l3.055,-0.427l-1.301,12.987l8.366,37.595c1.315,34.196 -7.873,52.669 -27.563,55.419l-19.01,2.655c-82.38,11.505 -181.502,54.306 -297.365,128.402l0.854,6.11l3.055,-0.426c154.762,-8.694 241.892,0.596 261.391,27.868c15.912,6.545 25.337,20.342 28.277,41.39c4.014,70.043 0.477,105.84 -10.613,107.388c-42.565,42.17 -91.217,77.922 -145.957,107.257c-82.54,41.753 -196.76,92.085 -342.663,150.995l-3.482,-2.629l-0.474,-3.394l20.786,-12.248l-0.901,-6.45l-33.726,11.286l-0.474,-3.395c-0.664,-4.753 4.099,-8.648 14.288,-11.686l-0.853,-6.111l-9.505,1.328l-0.901,-6.45l6.45,-0.901l-0.427,-3.056l-19.912,-3.795l2.629,-3.482l-1.328,-9.505c-8.373,1.17 -13.003,-1.414 -13.888,-7.751l-2.628,3.482l-6.45,0.901l-0.427,-3.056l2.628,-3.482l-0.426,-3.055l-6.111,0.854c-0.6,-4.301 -4.069,-6.008 -10.406,-5.123l-0.427,-3.055c-1.485,-10.637 79.599,-52.073 243.253,-124.306c107.691,-54.957 169.317,-90.329 184.879,-106.116c-180.662,13.234 -272.826,6.724 -276.493,-19.529c-22.944,-10.64 -36.249,-29.086 -39.916,-55.339c-3.382,-24.216 5.325,-54.389 26.121,-90.519c139.199,-126.732 278.052,-199.771 416.559,-219.115Zm-486.424,640.732l0.427,3.055l6.45,-0.901l-0.427,-3.055l-6.45,0.901Z" style="fill-rule:nonzero;"/><path d="M2431.38,1285.51l6.45,-0.901c9.505,-1.327 23.206,4.258 41.103,16.756l3.482,2.629l3.055,-0.427l-1.301,12.988l8.366,37.594c1.315,34.196 -7.873,52.669 -27.562,55.419l-19.011,2.655c-82.38,11.505 -181.502,54.306 -297.365,128.402l0.854,6.111l3.055,-0.427c154.762,-8.694 241.892,0.596 261.391,27.868c15.912,6.545 25.338,20.342 28.277,41.39c4.014,70.044 0.477,105.84 -10.613,107.389c-42.564,42.17 -91.217,77.922 -145.957,107.256c-82.539,41.754 -196.76,92.085 -342.663,150.995l-3.482,-2.629l-0.474,-3.394l20.786,-12.248l-0.901,-6.45l-33.726,11.286l-0.474,-3.395c-0.664,-4.752 4.099,-8.648 14.289,-11.686l-0.854,-6.111l-9.505,1.328l-0.901,-6.45l6.45,-0.901l-0.427,-3.055l-19.911,-3.795l2.628,-3.482l-1.327,-9.506c-8.374,1.17 -13.004,-1.414 -13.889,-7.751l-2.628,3.482l-6.45,0.901l-0.427,-3.055l2.629,-3.482l-0.427,-3.056l-6.111,0.854c-0.6,-4.3 -4.069,-6.008 -10.406,-5.123l-0.427,-3.055c-1.485,-10.637 79.599,-52.072 243.253,-124.306c107.691,-54.957 169.318,-90.329 184.879,-106.116c-180.662,13.234 -272.826,6.724 -276.493,-19.529c-22.944,-10.639 -36.249,-29.086 -39.916,-55.339c-3.382,-24.216 5.325,-54.389 26.121,-90.519c139.199,-126.732 278.052,-199.77 416.56,-219.115Zm-486.425,640.732l0.427,3.055l6.45,-0.901l-0.426,-3.055l-6.451,0.901Z" style="fill-rule:nonzero;"/><path d="M2617.01,1296.27l36.664,-5.12c113.838,-15.899 191.959,6.531 234.363,67.291c11.954,11.251 18.896,23.78 20.824,37.585l0.426,3.056c4.773,34.174 -37.194,76.491 -125.901,126.951l0.427,3.055c50.311,33.121 76.842,59.527 79.591,79.216l2.561,18.332c6.922,49.564 -136.928,144.643 -431.552,285.237l-62.028,24.238l-3.821,-2.581l2.968,-3.53l-1.28,-9.166c-10.411,1.454 -15.901,0.145 -16.47,-3.929l-4.762,-11.795l29.186,-16.535l-0.427,-3.056l-3.055,0.427l-39.205,11.705l-0.854,-6.11c13.974,-4.029 20.676,-8.079 20.107,-12.153l-3.055,0.426l-17.478,8.671l-3.482,-2.628l-3.056,0.426l-17.905,5.616l-3.055,0.427l-0.427,-3.056l4.831,-10.019l-0.427,-3.055l-3.055,0.427l-14.85,5.188l-3.482,-2.628l-0.427,-3.055c16.93,-19.208 32.071,-29.745 45.424,-31.61l-10.378,-29.699c11.321,-44.498 66.876,-168.777 166.664,-372.839c-38.474,5.374 -65.471,-1.239 -80.99,-19.837c-8.237,-1.157 -18.391,-14.391 -30.463,-39.7c-3.446,-24.669 40.363,-46.362 131.427,-65.08l106.422,-21.093Zm9.52,179.681c58.588,-29.871 107.654,-58.528 147.199,-85.971c-0.853,-6.111 -24.817,-5.879 -71.891,0.696l-42.775,5.974c-22.7,45.625 -33.544,72.059 -32.533,79.301Zm-121.501,269.969l0.427,3.055c99.691,-49.456 169.298,-94.595 208.821,-135.417l-58.051,8.107c-75.591,10.557 -112.39,22.965 -110.399,37.223l-40.798,87.032Z" style="fill-rule:nonzero;"/><path d="M3234.88,1187.83l3.394,-0.474c21.501,-3.003 46.12,14.671 73.857,53.021l3.869,2.921l2.133,15.276c1.36,9.732 -13.766,20.382 -45.376,31.949l0.427,3.055c58.677,55.026 91.793,109.584 99.347,163.675l2.181,15.616c18.712,133.981 -26.972,228.155 -137.053,282.523c-37.925,15.911 -69.788,25.668 -95.589,29.271l-35.984,5.026c-101.391,14.161 -181.617,-27.473 -240.679,-124.9c-6.527,-0.473 -13.434,-18.544 -20.723,-54.212l-3.082,-22.066c-14.034,-100.486 46.102,-201.871 180.409,-304.154c86.012,-56.544 156.968,-88.72 212.869,-96.527Zm-268.488,411.978l0.426,3.056c5.026,35.984 30.776,53.5 77.251,52.547l26.14,-3.651c70.385,-9.83 130.036,-59.347 178.953,-148.551c6.308,-22.57 8.839,-51.534 7.592,-86.893c-6.083,-28.684 -11.717,-45.895 -16.902,-51.631l1.775,-9.593c-10.246,-30.41 -16.727,-45.425 -19.443,-45.046c-62.847,17.545 -131.053,69.411 -204.618,155.596c-39.521,50.744 -56.58,95.466 -51.174,134.166Z" style="fill-rule:nonzero;"/><path d="M3761.46,1099.75l6.451,-0.901c9.505,-1.327 23.206,4.258 41.103,16.756l3.482,2.629l3.055,-0.427l-1.301,12.987l8.366,37.595c1.315,34.196 -7.873,52.669 -27.563,55.419l-19.01,2.655c-82.38,11.505 -181.502,54.306 -297.365,128.402l0.854,6.111l3.055,-0.427c154.762,-8.694 241.892,0.596 261.391,27.868c15.912,6.545 25.337,20.342 28.277,41.39c4.014,70.043 0.477,105.84 -10.613,107.389c-42.565,42.169 -91.217,77.921 -145.957,107.256c-82.539,41.753 -196.76,92.085 -342.663,150.995l-3.482,-2.629l-0.474,-3.394l20.786,-12.248l-0.901,-6.45l-33.726,11.286l-0.474,-3.395c-0.664,-4.753 4.099,-8.648 14.288,-11.686l-0.853,-6.111l-9.505,1.328l-0.901,-6.45l6.45,-0.901l-0.427,-3.055l-19.912,-3.795l2.629,-3.482l-1.328,-9.506c-8.373,1.17 -13.003,-1.414 -13.888,-7.751l-2.628,3.482l-6.45,0.901l-0.427,-3.055l2.628,-3.482l-0.426,-3.056l-6.111,0.854c-0.6,-4.3 -4.069,-6.008 -10.406,-5.123l-0.427,-3.055c-1.485,-10.637 79.599,-52.072 243.253,-124.306c107.691,-54.957 169.317,-90.329 184.879,-106.116c-180.662,13.234 -272.826,6.724 -276.493,-19.529c-22.944,-10.64 -36.249,-29.086 -39.916,-55.339c-3.382,-24.216 5.325,-54.389 26.121,-90.519c139.199,-126.732 278.052,-199.77 416.559,-219.115Zm-486.424,640.732l0.427,3.055l6.45,-0.901l-0.427,-3.055l-6.45,0.901Z" style="fill-rule:nonzero;"/><path d="M4129.79,1048.3l6.45,-0.901c9.505,-1.327 23.206,4.258 41.103,16.756l3.482,2.629l3.055,-0.427l-1.301,12.988l8.366,37.595c1.315,34.195 -7.873,52.668 -27.562,55.418l-19.011,2.655c-82.38,11.506 -181.502,54.306 -297.364,128.402l0.853,6.111l3.055,-0.427c154.762,-8.693 241.892,0.596 261.391,27.868c15.912,6.546 25.338,20.342 28.277,41.39c4.014,70.044 0.477,105.84 -10.613,107.389c-42.564,42.17 -91.217,77.922 -145.957,107.256c-82.539,41.754 -196.76,92.085 -342.663,150.995l-3.482,-2.628l-0.474,-3.395l20.786,-12.248l-0.901,-6.45l-33.726,11.286l-0.474,-3.395c-0.664,-4.752 4.099,-8.648 14.289,-11.686l-0.854,-6.111l-9.505,1.328l-0.901,-6.45l6.45,-0.901l-0.427,-3.055l-19.911,-3.795l2.628,-3.482l-1.327,-9.506c-8.374,1.17 -13.004,-1.414 -13.889,-7.751l-2.628,3.482l-6.45,0.901l-0.427,-3.055l2.629,-3.482l-0.427,-3.056l-6.111,0.854c-0.6,-4.3 -4.069,-6.008 -10.406,-5.123l-0.427,-3.055c-1.485,-10.637 79.599,-52.072 243.253,-124.306c107.691,-54.957 169.318,-90.329 184.879,-106.116c-180.662,13.234 -272.826,6.724 -276.493,-19.529c-22.944,-10.639 -36.249,-29.086 -39.916,-55.339c-3.382,-24.216 5.325,-54.389 26.121,-90.519c139.199,-126.732 278.052,-199.77 416.56,-219.115Zm-486.425,640.732l0.427,3.055l6.45,-0.9l-0.426,-3.056l-6.451,0.901Z" style="fill-rule:nonzero;"/></g></g></g><g><path d="M655.638,842.551l9.845,-1.375c57.032,-7.966 100.084,11.172 129.153,57.412c1.085,45.764 -3.238,69.326 -12.97,70.685l-3.395,0.474c-13.353,1.865 -36.772,-1.44 -70.259,-9.915l-65.062,2.511c-117.007,16.342 -208.836,78.313 -275.488,185.914c-27.889,51.427 -38.056,104.185 -30.502,158.275c4.204,30.1 28.825,42.006 73.862,35.716c27.159,-3.793 64.545,-17.783 112.159,-41.969l-0.427,-3.055l-3.394,0.474l-92.117,19.441c-0.822,-5.884 -10.481,-12.264 -28.977,-19.141l2.629,-3.482l-0.474,-3.395l-19.011,2.655l-0.901,-6.45l18.584,-5.71l-0.427,-3.056l-25.935,0.161l-0.9,-6.45l9.505,-1.327l-0.427,-3.056l-15.955,2.229l-0.474,-3.395l5.122,-10.406c-15.163,2.118 -23.045,1.026 -23.646,-3.274c-1.991,-14.258 125.652,-62.657 382.928,-145.197c24.669,-3.446 44.974,8.947 60.915,37.177l4.77,9.371c3.097,22.179 -8.666,47.819 -35.289,76.918c2.939,21.047 -44.595,71.41 -142.604,151.088c-46.355,34.855 -93.749,55.664 -142.181,62.428l-28.856,4.03c-96.185,13.434 -167.464,-26.911 -213.835,-121.035l-7.085,-28.429l-2.703,-19.35c-10.81,-77.401 36.142,-179.021 140.856,-304.859c80.341,-72.365 177.996,-116.576 292.966,-132.633Z" style="fill-rule:nonzero;"/><path d="M975.713,752.855l17.993,-2.513c55.192,11.904 84.97,33.472 89.332,64.704c-10.482,24.076 -49.028,145.403 -115.64,363.981l-18.176,45.802l185.685,-38.394l24.53,-0.311l17.992,-2.512l0.854,6.11l-8.827,1.233l1.28,9.166l17.993,-2.513l0.853,6.111l-28.127,19.156l8.623,17.139l17.993,-2.513l30.998,23.705c0.759,5.432 -57.117,24.706 -173.627,57.821c-48.82,17.202 -114.88,43.964 -198.178,80.286l-3.055,0.426c-11.09,1.549 -32.474,-11.962 -64.152,-40.532l-0.427,-3.056l2.676,-3.142l-3.482,-2.629l-4.219,-30.213c-1.423,-10.185 5.939,-23.557 22.085,-40.117c70.494,-189.126 118.141,-347.719 142.942,-475.778l-4.336,-8.74c9.292,-25.986 22.764,-40.212 40.417,-42.677Z" style="fill-rule:nonzero;"/><path d="M1556.18,698.78l3.395,-0.474c21.501,-3.003 46.119,14.671 73.857,53.021l3.869,2.921l2.133,15.276c1.359,9.732 -13.766,20.382 -45.376,31.949l0.427,3.056c58.677,55.025 91.793,109.584 99.347,163.674l2.181,15.616c18.712,133.981 -26.972,228.155 -137.053,282.523c-37.926,15.911 -69.788,25.668 -95.589,29.271l-35.985,5.026c-101.39,14.161 -181.617,-27.473 -240.678,-124.9c-6.527,-0.473 -13.435,-18.543 -20.723,-54.212l-3.082,-22.066c-14.034,-100.486 46.102,-201.87 180.409,-304.154c86.012,-56.544 156.968,-88.72 212.868,-96.527Zm-268.488,411.979l0.427,3.055c5.026,35.985 30.776,53.5 77.251,52.547l26.14,-3.651c70.385,-9.83 130.036,-59.347 178.953,-148.551c6.308,-22.57 8.838,-51.534 7.592,-86.893c-6.083,-28.684 -11.717,-45.895 -16.902,-51.631l1.775,-9.593c-10.246,-30.41 -16.727,-45.425 -19.443,-45.046c-62.847,17.545 -131.053,69.411 -204.619,155.597c-39.521,50.743 -56.579,95.465 -51.174,134.166Z" style="fill-rule:nonzero;"/><path d="M2082.76,610.7l6.45,-0.901c9.506,-1.327 23.207,4.258 41.104,16.756l3.482,2.629l3.055,-0.427l-1.301,12.988l8.366,37.595c1.314,34.195 -7.873,52.668 -27.563,55.418l-19.011,2.655c-82.38,11.506 -181.501,54.306 -297.364,128.402l0.854,6.111l3.055,-0.427c154.762,-8.693 241.892,0.596 261.391,27.868c15.911,6.546 25.337,20.342 28.277,41.39c4.014,70.044 0.476,105.84 -10.613,107.389c-42.565,42.17 -91.217,77.922 -145.957,107.256c-82.54,41.754 -196.761,92.085 -342.663,150.995l-3.482,-2.628l-0.474,-3.395l20.786,-12.248l-0.901,-6.45l-33.726,11.286l-0.474,-3.395c-0.664,-4.752 4.099,-8.648 14.288,-11.686l-0.853,-6.111l-9.506,1.328l-0.901,-6.45l6.451,-0.901l-0.427,-3.055l-19.912,-3.795l2.629,-3.482l-1.328,-9.506c-8.374,1.17 -13.003,-1.414 -13.888,-7.751l-2.629,3.482l-6.45,0.901l-0.426,-3.055l2.628,-3.482l-0.427,-3.056l-6.11,0.854c-0.601,-4.3 -4.069,-6.008 -10.406,-5.123l-0.427,-3.055c-1.486,-10.637 79.599,-52.072 243.253,-124.306c107.691,-54.957 169.317,-90.329 184.879,-106.116c-180.662,13.234 -272.826,6.724 -276.493,-19.529c-22.944,-10.639 -36.25,-29.086 -39.916,-55.339c-3.382,-24.216 5.325,-54.389 26.121,-90.519c139.199,-126.732 278.052,-199.77 416.559,-219.115Z" style="fill-rule:nonzero;"/><path d="M2451.1,559.257l6.45,-0.9c9.506,-1.328 23.207,4.257 41.104,16.756l3.482,2.628l3.055,-0.427l-1.301,12.988l8.366,37.595c1.315,34.195 -7.873,52.668 -27.563,55.418l-19.01,2.655c-82.381,11.506 -181.502,54.306 -297.365,128.402l0.854,6.111l3.055,-0.427c154.762,-8.693 241.892,0.596 261.391,27.868c15.912,6.546 25.337,20.342 28.277,41.39c4.014,70.044 0.476,105.84 -10.613,107.389c-42.565,42.17 -91.217,77.922 -145.957,107.256c-82.54,41.754 -196.761,92.086 -342.663,150.995l-3.482,-2.628l-0.474,-3.395l20.786,-12.248l-0.901,-6.45l-33.726,11.286l-0.474,-3.394c-0.664,-4.753 4.099,-8.649 14.288,-11.687l-0.853,-6.11l-9.505,1.327l-0.901,-6.45l6.45,-0.901l-0.427,-3.055l-19.912,-3.795l2.629,-3.482l-1.328,-9.506c-8.373,1.17 -13.003,-1.414 -13.888,-7.751l-2.628,3.482l-6.45,0.901l-0.427,-3.055l2.628,-3.482l-0.426,-3.055l-6.111,0.853c-0.601,-4.3 -4.069,-6.008 -10.406,-5.123l-0.427,-3.055c-1.486,-10.637 79.599,-52.072 243.253,-124.306c107.691,-54.957 169.317,-90.329 184.879,-106.116c-180.662,13.234 -272.826,6.724 -276.493,-19.529c-22.944,-10.639 -36.249,-29.085 -39.916,-55.338c-3.382,-24.217 5.325,-54.39 26.121,-90.52c139.199,-126.732 278.052,-199.77 416.559,-219.115Z" style="fill-rule:nonzero;"/><path d="M2636.72,570.019l36.663,-5.121c113.839,-15.899 191.96,6.531 234.364,67.291c11.954,11.252 18.895,23.78 20.824,37.585l0.426,3.056c4.773,34.174 -37.194,76.491 -125.901,126.951l0.427,3.056c50.311,33.121 76.841,59.526 79.591,79.216l2.561,18.332c6.922,49.563 -136.929,144.643 -431.552,285.237l-62.028,24.237l-3.821,-2.581l2.968,-3.529l-1.28,-9.166c-10.411,1.454 -15.901,0.144 -16.47,-3.93l-4.762,-11.794l29.186,-16.536l-0.427,-3.055l-3.055,0.426l-39.205,11.706l-0.854,-6.111c13.974,-4.028 20.676,-8.079 20.107,-12.153l-3.055,0.427l-17.478,8.671l-3.483,-2.629l-3.055,0.427l-17.905,5.615l-3.055,0.427l-0.427,-3.055l4.831,-10.02l-0.427,-3.055l-3.056,0.427l-14.849,5.189l-3.482,-2.629l-0.427,-3.055c16.93,-19.208 32.071,-29.745 45.424,-31.61l-10.378,-29.699c11.321,-44.498 66.876,-168.777 166.664,-372.838c-38.475,5.373 -65.471,-1.239 -80.99,-19.838c-8.237,-1.157 -18.392,-14.39 -30.464,-39.7c-3.445,-24.669 40.364,-46.362 131.428,-65.079l106.422,-21.093Zm9.52,179.68c58.588,-29.871 107.654,-58.528 147.199,-85.971c-0.853,-6.11 -24.817,-5.878 -71.892,0.696l-42.774,5.974c-22.7,45.625 -33.544,72.059 -32.533,79.301Zm-121.501,269.969l0.426,3.055c99.692,-49.456 169.299,-94.595 208.821,-135.417l-58.05,8.108c-75.591,10.557 -112.39,22.964 -110.399,37.223l-40.798,87.031Z" style="fill-rule:nonzero;"/><path d="M3254.6,461.574l3.395,-0.474c21.501,-3.003 46.119,14.671 73.857,53.021l3.869,2.921l2.133,15.277c1.359,9.731 -13.766,20.381 -45.376,31.948l0.427,3.056c58.677,55.026 91.793,109.584 99.347,163.674l2.181,15.616c18.712,133.981 -26.972,228.155 -137.053,282.524c-37.925,15.91 -69.788,25.667 -95.589,29.27l-35.985,5.026c-101.39,14.161 -181.617,-27.473 -240.678,-124.9c-6.527,-0.473 -13.435,-18.543 -20.723,-54.212l-3.082,-22.066c-14.034,-100.486 46.102,-201.87 180.409,-304.154c86.012,-56.544 156.968,-88.72 212.868,-96.527Zm-268.488,411.979l0.427,3.055c5.026,35.985 30.776,53.5 77.251,52.547l26.14,-3.651c70.385,-9.83 130.036,-59.347 178.953,-148.551c6.308,-22.57 8.838,-51.534 7.592,-86.893c-6.083,-28.684 -11.717,-45.894 -16.902,-51.631l1.775,-9.593c-10.246,-30.41 -16.727,-45.425 -19.443,-45.046c-62.847,17.545 -131.053,69.411 -204.619,155.597c-39.521,50.743 -56.579,95.465 -51.174,134.166Z" style="fill-rule:nonzero;"/><path d="M3781.17,373.494l6.45,-0.9c9.506,-1.328 23.207,4.257 41.104,16.755l3.482,2.629l3.055,-0.427l-1.301,12.988l8.366,37.595c1.314,34.195 -7.873,52.668 -27.563,55.418l-19.011,2.655c-82.38,11.506 -181.501,54.306 -297.364,128.402l0.854,6.111l3.055,-0.427c154.762,-8.693 241.892,0.596 261.391,27.868c15.911,6.546 25.337,20.342 28.277,41.39c4.014,70.044 0.476,105.84 -10.613,107.389c-42.565,42.17 -91.217,77.922 -145.957,107.256c-82.54,41.754 -196.761,92.086 -342.663,150.995l-3.482,-2.628l-0.474,-3.395l20.786,-12.248l-0.901,-6.45l-33.726,11.286l-0.474,-3.395c-0.664,-4.752 4.099,-8.648 14.288,-11.686l-0.853,-6.111l-9.506,1.328l-0.901,-6.45l6.451,-0.901l-0.427,-3.055l-19.912,-3.795l2.629,-3.482l-1.328,-9.506c-8.374,1.17 -13.003,-1.414 -13.888,-7.751l-2.629,3.482l-6.45,0.901l-0.426,-3.055l2.628,-3.482l-0.427,-3.055l-6.11,0.853c-0.601,-4.3 -4.069,-6.008 -10.406,-5.123l-0.427,-3.055c-1.486,-10.637 79.599,-52.072 243.253,-124.306c107.691,-54.957 169.317,-90.329 184.879,-106.116c-180.662,13.234 -272.826,6.724 -276.493,-19.529c-22.944,-10.639 -36.25,-29.085 -39.916,-55.338c-3.382,-24.217 5.325,-54.39 26.121,-90.52c139.199,-126.732 278.052,-199.77 416.559,-219.115Z" style="fill-rule:nonzero;"/><path d="M4149.51,322.052l6.45,-0.901c9.506,-1.328 23.207,4.257 41.104,16.756l3.482,2.628l3.055,-0.426l-1.301,12.987l8.366,37.595c1.315,34.195 -7.873,52.668 -27.563,55.418l-19.01,2.655c-82.38,11.506 -181.502,54.307 -297.365,128.402l0.854,6.111l3.055,-0.427c154.762,-8.693 241.892,0.596 261.391,27.868c15.912,6.546 25.337,20.342 28.277,41.39c4.014,70.044 0.477,105.84 -10.613,107.389c-42.565,42.17 -91.217,77.922 -145.957,107.256c-82.54,41.754 -196.76,92.086 -342.663,150.995l-3.482,-2.628l-0.474,-3.395l20.786,-12.248l-0.901,-6.45l-33.726,11.286l-0.474,-3.394c-0.664,-4.753 4.099,-8.648 14.288,-11.687l-0.853,-6.11l-9.505,1.327l-0.901,-6.45l6.45,-0.901l-0.427,-3.055l-19.912,-3.795l2.629,-3.482l-1.328,-9.505c-8.373,1.169 -13.003,-1.415 -13.888,-7.752l-2.628,3.482l-6.45,0.901l-0.427,-3.055l2.628,-3.482l-0.426,-3.055l-6.111,0.853c-0.6,-4.3 -4.069,-6.007 -10.406,-5.122l-0.427,-3.056c-1.485,-10.637 79.599,-52.072 243.253,-124.305c107.691,-54.958 169.317,-90.33 184.879,-106.117c-180.662,13.234 -272.826,6.725 -276.493,-19.528c-22.944,-10.64 -36.249,-29.086 -39.916,-55.339c-3.382,-24.216 5.325,-54.39 26.121,-90.52c139.199,-126.732 278.052,-199.77 416.559,-219.114Z" style="fill-rule:nonzero;"/></g><g><clipPath id="_clip2"><rect x="-16.49" y="163.956" width="4393.98" height="852.354"/></clipPath><g clip-path="url(#_clip2)"><g><path d="M622.926,138.276l9.844,-1.383c57.025,-8.015 100.093,11.086 129.203,57.3c1.124,45.764 -3.179,69.33 -12.91,70.697l-3.394,0.477c-13.351,1.876 -36.774,-1.408 -70.267,-9.855l-65.061,2.567c-116.992,16.443 -208.768,78.493 -275.327,186.152c-27.845,51.45 -37.967,104.217 -30.366,158.301c4.23,30.096 28.86,41.98 73.893,35.651c27.155,-3.816 64.529,-17.837 112.122,-42.064l-0.429,-3.055l-3.395,0.477l-92.099,19.52c-0.827,-5.883 -10.491,-12.255 -28.994,-19.116l2.626,-3.485l-0.477,-3.394l-19.008,2.671l-0.907,-6.449l18.579,-5.726l-0.429,-3.055l-25.935,0.183l-0.906,-6.449l9.504,-1.336l-0.429,-3.055l-15.954,2.242l-0.477,-3.394l5.114,-10.411c-15.162,2.131 -23.045,1.047 -23.649,-3.253c-2.004,-14.256 125.597,-62.765 382.803,-145.527c24.666,-3.466 44.981,8.909 60.946,37.125l4.778,9.367c3.117,22.177 -8.624,47.826 -35.222,76.948c2.957,21.045 -44.534,71.449 -142.474,151.211c-46.325,34.894 -93.701,55.744 -142.127,62.55l-28.853,4.055c-96.174,13.517 -167.487,-26.767 -213.939,-120.851l-7.11,-28.422l-2.719,-19.348c-10.877,-77.392 35.988,-179.052 140.593,-304.98c80.279,-72.435 177.896,-116.73 292.852,-132.886Z" style="fill-rule:nonzero;"/><path d="M942.924,48.305l17.99,-2.528c55.203,11.856 84.999,33.398 89.388,64.627c-10.461,24.084 -48.903,145.445 -115.326,364.08l-18.137,45.817l185.652,-38.553l24.53,-0.332l17.99,-2.528l0.858,6.11l-8.825,1.24l1.288,9.165l17.99,-2.528l0.859,6.109l-28.111,19.181l8.638,17.132l17.99,-2.528l31.02,23.678c0.763,5.431 -57.096,24.754 -173.578,57.97c-48.805,17.244 -114.842,44.062 -198.108,80.456l-3.055,0.429c-11.089,1.559 -32.484,-11.934 -64.187,-40.477l-0.429,-3.055l2.673,-3.145l-3.484,-2.625l-4.246,-30.21c-1.431,-10.183 5.919,-23.562 22.05,-40.137c70.332,-189.186 117.843,-347.819 142.533,-475.9l-4.343,-8.736c9.269,-25.994 22.729,-40.231 40.38,-42.712Z" style="fill-rule:nonzero;"/><path d="M1523.35,-6.269l3.394,-0.477c21.498,-3.022 46.132,14.631 73.902,52.957l3.871,2.918l2.147,15.274c1.368,9.731 -13.749,20.393 -45.349,31.988l0.43,3.055c58.724,54.976 91.887,109.505 99.488,163.589l2.194,15.614c18.828,133.965 -26.775,228.178 -136.809,282.641c-37.912,15.944 -69.767,25.728 -95.564,29.354l-35.98,5.056c-101.379,14.248 -181.641,-27.316 -240.786,-124.693c-6.527,-0.467 -13.451,-18.532 -20.77,-54.194l-3.101,-22.063c-14.121,-100.474 45.928,-201.91 180.147,-304.309c85.963,-56.618 156.892,-88.855 212.786,-96.71Zm-268.134,412.209l0.429,3.055c5.057,35.98 30.823,53.474 77.297,52.481l26.136,-3.674c70.377,-9.89 129.985,-59.459 178.825,-148.705c6.289,-22.575 8.794,-51.541 7.517,-86.899c-6.107,-28.679 -11.756,-45.885 -16.946,-51.617l1.767,-9.594c-10.272,-30.401 -16.766,-45.411 -19.482,-45.03c-62.832,17.6 -130.993,69.524 -204.484,155.773c-39.478,50.777 -56.497,95.514 -51.059,134.21Z" style="fill-rule:nonzero;"/><path d="M2049.85,-94.802l6.45,-0.907c9.504,-1.335 23.21,4.238 41.117,16.721l3.485,2.625l3.055,-0.429l-1.29,12.989l8.398,37.587c1.344,34.195 -7.828,52.676 -27.515,55.442l-19.008,2.672c-82.371,11.576 -181.455,54.462 -297.254,128.658l0.859,6.11l3.055,-0.43c154.754,-8.826 241.892,0.388 261.414,27.643c15.918,6.532 25.355,20.321 28.313,41.366c4.074,70.04 0.568,105.84 -10.521,107.398c-42.528,42.206 -91.149,78 -145.864,107.381c-82.504,41.825 -196.681,92.255 -342.533,151.291l-3.484,-2.626l-0.478,-3.394l20.776,-12.266l-0.906,-6.449l-33.717,11.315l-0.477,-3.394c-0.668,-4.753 4.092,-8.652 14.279,-11.699l-0.859,-6.11l-9.504,1.336l-0.907,-6.45l6.45,-0.906l-0.43,-3.055l-19.915,-3.778l2.626,-3.484l-1.336,-9.504c-8.373,1.176 -13.004,-1.403 -13.895,-7.739l-2.625,3.484l-6.45,0.906l-0.429,-3.055l2.626,-3.484l-0.43,-3.055l-6.11,0.859c-0.604,-4.3 -4.074,-6.004 -10.41,-5.114l-0.43,-3.055c-1.494,-10.635 79.554,-52.14 243.146,-124.515c107.644,-55.05 169.24,-90.475 184.788,-106.275c-180.651,13.389 -272.82,6.959 -276.51,-19.291c-22.953,-10.62 -36.274,-29.055 -39.963,-55.304c-3.403,-24.214 5.278,-54.394 26.043,-90.542c139.09,-126.852 277.88,-200.01 416.37,-219.473Z" style="fill-rule:nonzero;"/><path d="M2418.14,-146.562l6.449,-0.906c9.505,-1.336 23.211,4.237 41.118,16.72l3.485,2.626l3.054,-0.43l-1.289,12.989l8.398,37.588c1.344,34.194 -7.828,52.675 -27.515,55.442l-19.009,2.671c-82.37,11.576 -181.454,54.462 -297.253,128.658l0.858,6.11l3.055,-0.429c154.754,-8.827 241.893,0.387 261.415,27.643c15.917,6.531 25.355,20.32 28.313,41.365c4.074,70.04 0.567,105.84 -10.521,107.398c-42.528,42.207 -91.15,78 -145.865,107.382c-82.503,41.825 -196.681,92.255 -342.532,151.29l-3.485,-2.626l-0.477,-3.394l20.776,-12.266l-0.907,-6.449l-33.716,11.315l-0.477,-3.394c-0.668,-4.752 4.092,-8.652 14.278,-11.699l-0.858,-6.11l-9.505,1.336l-0.906,-6.449l6.449,-0.907l-0.429,-3.055l-19.915,-3.777l2.626,-3.485l-1.336,-9.504c-8.373,1.177 -13.004,-1.403 -13.895,-7.739l-2.626,3.484l-6.449,0.907l-0.429,-3.055l2.625,-3.485l-0.429,-3.055l-6.11,0.859c-0.604,-4.3 -4.074,-6.004 -10.41,-5.114l-0.43,-3.054c-1.495,-10.636 79.554,-52.141 243.146,-124.515c107.644,-55.051 169.24,-90.476 184.788,-106.276c-180.651,13.39 -272.821,6.959 -276.51,-19.291c-22.953,-10.619 -36.274,-29.054 -39.964,-55.304c-3.403,-24.213 5.279,-54.394 26.044,-90.542c139.089,-126.852 277.88,-200.009 416.37,-219.473Z" style="fill-rule:nonzero;"/><path d="M2603.78,-135.961l36.659,-5.152c113.825,-15.997 191.965,6.366 234.421,67.09c11.964,11.241 18.916,23.763 20.856,37.567l0.43,3.055c4.802,34.17 -37.129,76.523 -125.792,127.06l0.429,3.055c50.34,33.077 76.893,59.46 79.66,79.147l2.576,18.33c6.965,49.558 -136.804,144.761 -431.306,285.608l-62.007,24.291l-3.824,-2.578l2.965,-3.532l-1.288,-9.164c-10.409,1.463 -15.9,0.157 -16.473,-3.916l-4.772,-11.79l29.171,-16.561l-0.429,-3.055l-3.055,0.429l-39.195,11.739l-0.858,-6.11c13.97,-4.04 20.669,-8.096 20.096,-12.17l-3.055,0.43l-17.471,8.686l-3.484,-2.626l-3.055,0.429l-17.9,5.631l-3.055,0.43l-0.43,-3.055l4.822,-10.024l-0.429,-3.055l-3.055,0.43l-14.845,5.201l-3.485,-2.625l-0.429,-3.055c16.913,-19.223 32.045,-29.772 45.397,-31.649l-10.404,-29.69c11.283,-44.508 66.731,-168.835 166.343,-372.982c-38.47,5.407 -65.472,-1.183 -81.006,-19.768c-8.239,-1.15 -18.405,-14.374 -30.498,-39.674c-3.467,-24.666 40.323,-46.396 131.371,-65.192l106.404,-21.185Zm9.675,179.673c58.561,-29.922 107.603,-58.621 147.125,-86.098c-0.859,-6.11 -24.823,-5.857 -71.891,0.758l-42.77,6.011c-22.66,45.645 -33.482,72.088 -32.464,79.329Zm-121.269,270.073l0.429,3.055c99.649,-49.542 169.217,-94.741 208.704,-135.597l-58.043,8.157c-75.582,10.623 -112.371,23.062 -110.367,37.318l-40.723,87.067Z" style="fill-rule:nonzero;"/><path d="M3221.56,-244.937l3.394,-0.477c21.498,-3.021 46.132,14.631 73.902,52.958l3.872,2.917l2.146,15.275c1.368,9.731 -13.748,20.393 -45.348,31.988l0.429,3.055c58.724,54.975 91.887,109.505 99.488,163.588l2.195,15.615c18.827,133.964 -26.776,228.178 -136.81,282.641c-37.912,15.943 -69.767,25.728 -95.564,29.353l-35.98,5.057c-101.379,14.248 -181.641,-27.316 -240.786,-124.693c-6.527,-0.467 -13.451,-18.532 -20.77,-54.194l-3.101,-22.064c-14.121,-100.473 45.929,-201.909 180.148,-304.308c85.962,-56.619 156.891,-88.855 212.785,-96.711Zm-268.134,412.21l0.43,3.055c5.056,35.98 30.822,53.474 77.296,52.48l26.137,-3.673c70.376,-9.891 129.985,-59.459 178.825,-148.705c6.288,-22.575 8.794,-51.542 7.517,-86.9c-6.108,-28.679 -11.756,-45.884 -16.946,-51.616l1.766,-9.594c-10.272,-30.402 -16.766,-45.412 -19.481,-45.03c-62.833,17.6 -130.994,69.524 -204.485,155.773c-39.477,50.777 -56.497,95.514 -51.059,134.21Z" style="fill-rule:nonzero;"/><path d="M3748.06,-333.47l6.449,-0.906c9.504,-1.336 23.21,4.238 41.118,16.721l3.484,2.625l3.055,-0.429l-1.29,12.988l8.398,37.588c1.344,34.194 -7.827,52.675 -27.515,55.442l-19.008,2.672c-82.37,11.576 -181.455,54.462 -297.254,128.657l0.859,6.11l3.055,-0.429c154.754,-8.827 241.892,0.388 261.414,27.643c15.918,6.532 25.356,20.32 28.313,41.366c4.075,70.04 0.568,105.839 -10.52,107.398c-42.529,42.206 -91.15,78 -145.865,107.381c-82.504,41.825 -196.681,92.255 -342.533,151.29l-3.484,-2.625l-0.477,-3.395l20.775,-12.265l-0.906,-6.45l-33.716,11.316l-0.478,-3.395c-0.667,-4.752 4.092,-8.651 14.279,-11.698l-0.859,-6.11l-9.504,1.335l-0.906,-6.449l6.449,-0.906l-0.429,-3.055l-19.915,-3.778l2.625,-3.484l-1.336,-9.505c-8.372,1.177 -13.004,-1.403 -13.894,-7.739l-2.626,3.485l-6.449,0.906l-0.43,-3.055l2.626,-3.484l-0.429,-3.055l-6.11,0.858c-0.605,-4.299 -4.075,-6.004 -10.411,-5.113l-0.429,-3.055c-1.495,-10.636 79.553,-52.141 243.145,-124.515c107.644,-55.05 169.24,-90.475 184.788,-106.275c-180.65,13.389 -272.82,6.959 -276.509,-19.291c-22.954,-10.62 -36.275,-29.055 -39.964,-55.305c-3.403,-24.213 5.278,-54.393 26.043,-90.541c139.09,-126.852 277.88,-200.01 416.371,-219.474Z" style="fill-rule:nonzero;"/><path d="M4116.35,-385.229l6.45,-0.907c9.504,-1.335 23.21,4.238 41.118,16.721l3.484,2.625l3.055,-0.429l-1.29,12.989l8.398,37.587c1.344,34.195 -7.827,52.675 -27.515,55.442l-19.008,2.672c-82.371,11.576 -181.455,54.462 -297.254,128.658l0.859,6.11l3.055,-0.43c154.754,-8.826 241.892,0.388 261.414,27.643c15.918,6.532 25.355,20.321 28.313,41.366c4.074,70.04 0.568,105.839 -10.521,107.398c-42.528,42.206 -91.149,78 -145.864,107.381c-82.504,41.825 -196.681,92.255 -342.533,151.291l-3.484,-2.626l-0.477,-3.394l20.775,-12.266l-0.906,-6.449l-33.717,11.315l-0.477,-3.394c-0.668,-4.753 4.092,-8.652 14.279,-11.699l-0.859,-6.11l-9.504,1.336l-0.907,-6.45l6.45,-0.906l-0.43,-3.055l-19.915,-3.778l2.626,-3.484l-1.336,-9.504c-8.373,1.176 -13.004,-1.403 -13.895,-7.739l-2.625,3.484l-6.45,0.906l-0.429,-3.055l2.626,-3.484l-0.43,-3.055l-6.11,0.859c-0.604,-4.3 -4.074,-6.004 -10.41,-5.114l-0.43,-3.055c-1.494,-10.636 79.554,-52.14 243.146,-124.515c107.644,-55.05 169.24,-90.475 184.788,-106.275c-180.651,13.389 -272.82,6.959 -276.51,-19.291c-22.953,-10.62 -36.274,-29.055 -39.963,-55.304c-3.403,-24.214 5.278,-54.394 26.043,-90.542c139.09,-126.852 277.88,-200.01 416.37,-219.473Z" style="fill-rule:nonzero;"/></g></g></g><path d="M4191.16,155.844l4.993,0.526l4.665,1.477l4.225,2.326l3.681,3.07l3.038,3.713l2.291,4.253l1.443,4.69l0.493,5.013l0,0.02l-0.525,5.011l-1.472,4.68l-2.317,4.238l-3.061,3.694l-3.701,3.048l-4.239,2.299l-4.674,1.448l-4.997,0.494l-0.01,0l-15.212,-0.13l-523.281,-4.421l-1235.37,-10.172l-700.834,-5.561l-661.24,-5.007l-550.374,-3.8l-211.34,-1.243l-156.898,-0.697l-0.01,0l-2.57,-0.535l-2.109,-1.436l-1.422,-2.117l-0.516,-2.571l0,-0.02l0.532,-2.567l1.435,-2.108l2.119,-1.423l2.573,-0.519l156.908,0.284l211.345,0.079l550.387,-0.358l661.258,-0.871l700.855,-1.178l1235.41,-2.445l523.299,-1.149l15.213,-0.035l0.01,0Z"/><path d="M151.602,1646.18l523.298,1.149l1235.41,2.445l700.855,1.178l661.258,0.871l550.388,0.358l211.344,-0.079l156.899,-0.284l0.01,0l2.573,0.519l2.118,1.422l1.435,2.109l0.533,2.567l0,0.02l-0.517,2.57l-1.422,2.118l-2.109,1.436l-2.57,0.535l-156.907,0.697l-211.341,1.243l-550.374,3.8l-661.24,5.007l-700.834,5.561l-1235.37,10.172l-523.281,4.421l-15.212,0.13l-0.01,0l-4.997,-0.494l-4.674,-1.448l-4.239,-2.299l-3.701,-3.048l-3.06,-3.694l-2.318,-4.238l-1.472,-4.68l-0.524,-5.011l0,-0.02l0.492,-5.013l1.443,-4.69l2.291,-4.253l3.038,-3.713l3.682,-3.071l4.224,-2.325l4.665,-1.477l4.994,-0.526l0.01,0l15.213,0.035Z"/></svg>