<?xml version="1.0" encoding="UTF-8"?><svg id="a" xmlns="http://www.w3.org/2000/svg" width="74.08mm" height="17.48mm" xmlns:xlink="http://www.w3.org/1999/xlink" viewBox="0 0 210 49.56"><defs><linearGradient id="b" x1="6.76" y1="24.77" x2="199.11" y2="24.77" gradientTransform="matrix(1, 0, 0, 1, 0, 0)" gradientUnits="userSpaceOnUse"><stop offset="0" stop-color="#453f92"/><stop offset="1" stop-color="#e9531d"/></linearGradient></defs><g><path d="M30.89,11.71h.46c2.68,0,4.53,1.16,5.57,3.47-.24,2.11-.59,3.17-1.05,3.17h-.16c-.63,0-1.68-.3-3.17-.91l-3.01-.3c-5.49,0-10.11,2.26-13.87,6.78-1.61,2.19-2.42,4.55-2.42,7.09,0,1.41,1.06,2.12,3.17,2.12,1.27,0,3.08-.4,5.43-1.21v-.14h-.16l-4.36,.3c0-.28-.4-.63-1.21-1.07l.14-.14v-.16h-.89v-.3l.89-.14v-.14l-1.19-.16v-.3h.45v-.14h-.75v-.16l.3-.45c-.71,0-1.07-.1-1.07-.3,0-.67,6.18-2.08,18.55-4.22,1.16,0,2.01,.7,2.56,2.1l.16,.46c0,1.04-.71,2.15-2.12,3.31,0,.99-2.51,3-7.53,6.04-2.36,1.31-4.67,1.96-6.94,1.96h-1.35c-4.51,0-7.53-2.31-9.06-6.94l-.14-1.35v-.91c0-3.63,2.81-8.01,8.44-13.12,4.16-2.81,8.94-4.22,14.33-4.22Z" style="fill:#fff; stroke:#150f24; stroke-miterlimit:10; stroke-width:2.72px;"/><path d="M46.2,9.64h.84c2.46,.9,3.69,2.09,3.69,3.55-.64,1.04-3.19,6.38-7.66,16.01l-1.13,1.99,8.79-.57,1.13,.14h.84v.29h-.41v.43h.84v.29l-1.42,.7,.29,.84h.84l1.27,1.29c0,.25-2.79,.77-8.36,1.55-2.36,.48-5.57,1.28-9.64,2.42h-.14c-.52,0-1.42-.76-2.69-2.28v-.14l.14-.13-.14-.14v-1.42c0-.48,.42-1.05,1.27-1.7,4.46-8.25,7.67-15.24,9.63-20.98l-.14-.43c.59-1.14,1.31-1.7,2.13-1.7Z" style="fill:#fff; stroke:#150f24; stroke-miterlimit:10; stroke-width:2.72px;"/><path d="M73.25,10.88h.16c1.01,0,2.03,.97,3.06,2.91l.16,.16v.72c0,.46-.76,.85-2.29,1.18v.14c2.35,2.91,3.52,5.63,3.52,8.17v.73c0,6.29-2.71,10.33-8.12,12.12-1.85,.49-3.38,.73-4.59,.73h-1.69c-4.76,0-8.18-2.43-10.27-7.29-.3-.06-.5-.94-.6-2.63v-1.04c0-4.71,3.42-8.99,10.26-12.84,4.32-2.05,7.79-3.07,10.42-3.07Zm-15,17.23v.14c0,1.69,1.07,2.66,3.22,2.91h1.23c3.3,0,6.36-1.9,9.19-5.69,.44-1,.74-2.31,.91-3.95-.1-1.36-.24-2.19-.45-2.48l.14-.43c-.28-1.46-.48-2.2-.61-2.2-3,.4-6.48,2.35-10.42,5.85-2.15,2.08-3.22,4.03-3.22,5.84Z" style="fill:#fff; stroke:#150f24; stroke-miterlimit:10; stroke-width:2.72px;"/><path d="M98.05,10.21h.3c.45,0,1.04,.34,1.78,1.04l.14,.14h.14l-.14,.59,.14,1.78c-.16,1.58-.7,2.37-1.62,2.37h-.89c-3.86,0-8.7,1.33-14.51,4v.29h.14c7.18,.59,11.13,1.58,11.85,2.96,.69,.4,1.04,1.1,1.04,2.09-.27,3.25-.66,4.87-1.18,4.87-2.23,1.67-4.7,3-7.41,4-4.07,1.39-9.65,2.97-16.74,4.75l-.14-.14v-.16l1.04-.43v-.3l-1.62,.3v-.16c0-.22,.24-.37,.73-.45v-.29h-.45v-.3h.3v-.14l-.89-.3,.14-.14v-.45c-.39,0-.59-.15-.59-.45l-.14,.14h-.3v-.14l.14-.14v-.14h-.29c0-.2-.15-.3-.45-.3v-.14c0-.5,4-1.88,11.99-4.16,5.31-1.84,8.37-3.07,9.19-3.69-8.4-.55-12.6-1.44-12.6-2.68-.99-.64-1.48-1.57-1.48-2.8,0-1.14,.59-2.47,1.78-4,7.22-4.94,14.08-7.41,20.58-7.41Zm-26.5,26.36v.14h.3v-.14h-.3Z" style="fill:#fff; stroke:#150f24; stroke-miterlimit:10; stroke-width:2.72px;"/><path d="M115.33,10.21h.3c.45,0,1.04,.34,1.78,1.04l.14,.14h.14l-.14,.59,.14,1.78c-.16,1.58-.7,2.37-1.62,2.37h-.89c-3.86,0-8.7,1.33-14.51,4v.29h.14c7.18,.59,11.13,1.58,11.85,2.96,.69,.4,1.04,1.1,1.04,2.09-.27,3.25-.66,4.87-1.18,4.87-2.23,1.67-4.7,3-7.41,4-4.07,1.39-9.65,2.97-16.74,4.75l-.14-.14v-.16l1.04-.43v-.3l-1.62,.3v-.16c0-.22,.24-.37,.73-.45v-.29h-.45v-.3h.3v-.14l-.89-.3,.14-.14v-.45c-.39,0-.59-.15-.59-.45l-.14,.14h-.3v-.14l.14-.14v-.14h-.29c0-.2-.15-.3-.45-.3v-.14c0-.5,4-1.88,11.99-4.16,5.31-1.84,8.37-3.07,9.19-3.7-8.4-.55-12.6-1.44-12.6-2.68-.99-.64-1.48-1.57-1.48-2.8,0-1.14,.59-2.47,1.78-4,7.22-4.94,14.08-7.41,20.58-7.41Zm-26.5,26.36v.14h.3v-.14h-.3Z" style="fill:#fff; stroke:#150f24; stroke-miterlimit:10; stroke-width:2.72px;"/><path d="M123.8,11.9h1.72c5.34,0,8.79,1.53,10.35,4.6,.48,.59,.72,1.22,.72,1.86v.14c0,1.6-2.2,3.28-6.61,5.03v.14c2.1,1.85,3.15,3.23,3.15,4.16v.86c0,2.33-7.23,5.78-21.69,10.35l-3.01,.72-.16-.14,.16-.14v-.43c-.49,0-.73-.1-.73-.29l-.14-.57,1.45-.57v-.14h-.14l-1.88,.29v-.29c.67-.1,1-.24,1-.43h-.14l-.86,.29-.14-.14h-.14l-.86,.14h-.14v-.14l.29-.43v-.14h-.14l-.72,.14-.14-.14v-.14c.9-.78,1.67-1.16,2.29-1.16l-.29-1.43c.81-1.98,4.16-7.34,10.07-16.09-1.8,0-3-.48-3.6-1.43-.37-.11-.75-.78-1.15-2.02,0-1.16,2.16-1.87,6.47-2.15l5.03-.29Zm-8.04,19.97v.14c4.91-1.64,8.4-3.27,10.48-4.89h-2.72c-3.55,0-5.32,.33-5.32,1l-2.44,3.74Zm7.33-11.64c2.89-1,5.33-2,7.33-3.01,0-.29-1.1-.43-3.31-.43h-2.01c-1.34,1.95-2.01,3.1-2.01,3.44Z" style="fill:#fff; stroke:#150f24; stroke-miterlimit:10; stroke-width:2.72px;"/><path d="M152.93,10.88h.16c1.01,0,2.03,.97,3.06,2.91l.16,.16v.72c0,.46-.76,.85-2.29,1.18v.14c2.35,2.91,3.52,5.63,3.52,8.17v.73c0,6.29-2.71,10.33-8.12,12.12-1.85,.49-3.38,.73-4.59,.73h-1.69c-4.76,0-8.18-2.43-10.27-7.29-.3-.06-.5-.94-.61-2.63v-1.04c0-4.71,3.42-8.99,10.26-12.84,4.32-2.05,7.79-3.07,10.42-3.07Zm-15,17.23v.14c0,1.69,1.07,2.66,3.22,2.91h1.23c3.3,0,6.37-1.9,9.19-5.69,.44-1,.74-2.31,.91-3.95-.09-1.36-.24-2.19-.45-2.48l.14-.43c-.28-1.46-.48-2.2-.61-2.2-3,.4-6.48,2.35-10.42,5.85-2.14,2.08-3.22,4.03-3.22,5.84Z" style="fill:#fff; stroke:#150f24; stroke-miterlimit:10; stroke-width:2.72px;"/><path d="M177.73,10.21h.3c.45,0,1.04,.34,1.78,1.04l.14,.14h.14l-.14,.59,.14,1.78c-.16,1.58-.7,2.37-1.62,2.37h-.89c-3.87,0-8.7,1.33-14.51,4v.29h.14c7.18,.59,11.13,1.58,11.85,2.96,.69,.4,1.04,1.1,1.04,2.09-.27,3.25-.66,4.87-1.18,4.87-2.23,1.67-4.7,3-7.41,4-4.07,1.39-9.65,2.97-16.74,4.75l-.14-.14v-.16l1.04-.43v-.3l-1.62,.3v-.16c0-.22,.25-.37,.73-.45v-.29h-.45v-.3h.3v-.14l-.89-.3,.14-.14v-.45c-.39,0-.59-.15-.59-.45l-.14,.14h-.3v-.14l.14-.14v-.14h-.29c0-.2-.15-.3-.45-.3v-.14c0-.5,4-1.88,11.99-4.16,5.31-1.84,8.37-3.07,9.19-3.69-8.4-.55-12.6-1.44-12.6-2.68-.99-.64-1.48-1.57-1.48-2.8,0-1.14,.59-2.47,1.78-4,7.22-4.94,14.08-7.41,20.58-7.41Zm-26.5,26.36v.14h.3v-.14h-.3Z" style="fill:#fff; stroke:#150f24; stroke-miterlimit:10; stroke-width:2.72px;"/><path d="M195.01,10.21h.3c.45,0,1.04,.34,1.78,1.04l.14,.14h.14l-.14,.59,.14,1.78c-.16,1.58-.7,2.37-1.62,2.37h-.89c-3.87,0-8.7,1.33-14.51,4v.29h.14c7.18,.59,11.13,1.58,11.85,2.96,.69,.4,1.04,1.1,1.04,2.09-.27,3.25-.66,4.87-1.18,4.87-2.23,1.67-4.7,3-7.41,4-4.07,1.39-9.65,2.97-16.74,4.75l-.14-.14v-.16l1.04-.43v-.3l-1.62,.3v-.16c0-.22,.25-.37,.73-.45v-.29h-.45v-.3h.3v-.14l-.89-.3,.14-.14v-.45c-.39,0-.59-.15-.59-.45l-.14,.14h-.3v-.14l.14-.14v-.14h-.29c0-.2-.15-.3-.45-.3v-.14c0-.5,4-1.88,11.99-4.16,5.31-1.84,8.37-3.07,9.19-3.69-8.4-.55-12.6-1.44-12.6-2.68-.99-.64-1.48-1.57-1.48-2.8,0-1.14,.59-2.47,1.78-4,7.22-4.94,14.08-7.41,20.58-7.41Zm-26.5,26.36v.14h.3v-.14h-.3Z" style="fill:#fff; stroke:#150f24; stroke-miterlimit:10; stroke-width:2.72px;"/></g><g><path d="M30.89,11.71h.46c2.68,0,4.53,1.16,5.57,3.47-.24,2.11-.59,3.17-1.05,3.17h-.16c-.63,0-1.68-.3-3.17-.91l-3.01-.3c-5.49,0-10.11,2.26-13.87,6.78-1.61,2.19-2.42,4.55-2.42,7.09,0,1.41,1.06,2.12,3.17,2.12,1.27,0,3.08-.4,5.43-1.21v-.14h-.16l-4.36,.3c0-.28-.4-.63-1.21-1.07l.14-.14v-.16h-.89v-.3l.89-.14v-.14l-1.19-.16v-.3h.45v-.14h-.75v-.16l.3-.45c-.71,0-1.07-.1-1.07-.3,0-.67,6.18-2.08,18.55-4.22,1.16,0,2.01,.7,2.56,2.1l.16,.46c0,1.04-.71,2.15-2.12,3.31,0,.99-2.51,3-7.53,6.04-2.36,1.31-4.67,1.96-6.94,1.96h-1.35c-4.51,0-7.53-2.31-9.06-6.94l-.14-1.35v-.91c0-3.63,2.81-8.01,8.44-13.12,4.16-2.81,8.94-4.22,14.33-4.22Z" style="fill:none; stroke:url(#b); stroke-linecap:round; stroke-linejoin:round; stroke-width:5.44px;"/><path d="M46.2,9.64h.84c2.46,.9,3.69,2.09,3.69,3.55-.64,1.04-3.19,6.38-7.66,16.01l-1.13,1.99,8.79-.57,1.13,.14h.84v.29h-.41v.43h.84v.29l-1.42,.7,.29,.84h.84l1.27,1.29c0,.25-2.79,.77-8.36,1.55-2.36,.48-5.57,1.28-9.64,2.42h-.14c-.52,0-1.42-.76-2.69-2.28v-.14l.14-.13-.14-.14v-1.42c0-.48,.42-1.05,1.27-1.7,4.46-8.25,7.67-15.24,9.63-20.98l-.14-.43c.59-1.14,1.31-1.7,2.13-1.7Z" style="fill:none; stroke:url(#b); stroke-linecap:round; stroke-linejoin:round; stroke-width:5.44px;"/><path d="M73.25,10.88h.16c1.01,0,2.03,.97,3.06,2.91l.16,.16v.72c0,.46-.76,.85-2.29,1.18v.14c2.35,2.91,3.52,5.63,3.52,8.17v.73c0,6.29-2.71,10.33-8.12,12.12-1.85,.49-3.38,.73-4.59,.73h-1.69c-4.76,0-8.18-2.43-10.27-7.29-.3-.06-.5-.94-.6-2.63v-1.04c0-4.71,3.42-8.99,10.26-12.84,4.32-2.05,7.79-3.07,10.42-3.07Zm-15,17.23v.14c0,1.69,1.07,2.66,3.22,2.91h1.23c3.3,0,6.36-1.9,9.19-5.69,.44-1,.74-2.31,.91-3.95-.1-1.36-.24-2.19-.45-2.48l.14-.43c-.28-1.46-.48-2.2-.61-2.2-3,.4-6.48,2.35-10.42,5.85-2.15,2.08-3.22,4.03-3.22,5.84Z" style="fill:none; stroke:url(#b); stroke-linecap:round; stroke-linejoin:round; stroke-width:5.44px;"/><path d="M98.05,10.21h.3c.45,0,1.04,.34,1.78,1.04l.14,.14h.14l-.14,.59,.14,1.78c-.16,1.58-.7,2.37-1.62,2.37h-.89c-3.86,0-8.7,1.33-14.51,4v.29h.14c7.18,.59,11.13,1.58,11.85,2.96,.69,.4,1.04,1.1,1.04,2.09-.27,3.25-.66,4.87-1.18,4.87-2.23,1.67-4.7,3-7.41,4-4.07,1.39-9.65,2.97-16.74,4.75l-.14-.14v-.16l1.04-.43v-.3l-1.62,.3v-.16c0-.22,.24-.37,.73-.45v-.29h-.45v-.3h.3v-.14l-.89-.3,.14-.14v-.45c-.39,0-.59-.15-.59-.45l-.14,.14h-.3v-.14l.14-.14v-.14h-.29c0-.2-.15-.3-.45-.3v-.14c0-.5,4-1.88,11.99-4.16,5.31-1.84,8.37-3.07,9.19-3.69-8.4-.55-12.6-1.44-12.6-2.68-.99-.64-1.48-1.57-1.48-2.8,0-1.14,.59-2.47,1.78-4,7.22-4.94,14.08-7.41,20.58-7.41Zm-26.5,26.36v.14h.3v-.14h-.3Z" style="fill:none; stroke:url(#b); stroke-linecap:round; stroke-linejoin:round; stroke-width:5.44px;"/><path d="M115.33,10.21h.3c.45,0,1.04,.34,1.78,1.04l.14,.14h.14l-.14,.59,.14,1.78c-.16,1.58-.7,2.37-1.62,2.37h-.89c-3.86,0-8.7,1.33-14.51,4v.29h.14c7.18,.59,11.13,1.58,11.85,2.96,.69,.4,1.04,1.1,1.04,2.09-.27,3.25-.66,4.87-1.18,4.87-2.23,1.67-4.7,3-7.41,4-4.07,1.39-9.65,2.97-16.74,4.75l-.14-.14v-.16l1.04-.43v-.3l-1.62,.3v-.16c0-.22,.24-.37,.73-.45v-.29h-.45v-.3h.3v-.14l-.89-.3,.14-.14v-.45c-.39,0-.59-.15-.59-.45l-.14,.14h-.3v-.14l.14-.14v-.14h-.29c0-.2-.15-.3-.45-.3v-.14c0-.5,4-1.88,11.99-4.16,5.31-1.84,8.37-3.07,9.19-3.7-8.4-.55-12.6-1.44-12.6-2.68-.99-.64-1.48-1.57-1.48-2.8,0-1.14,.59-2.47,1.78-4,7.22-4.94,14.08-7.41,20.58-7.41Zm-26.5,26.36v.14h.3v-.14h-.3Z" style="fill:none; stroke:url(#b); stroke-linecap:round; stroke-linejoin:round; stroke-width:5.44px;"/><path d="M123.8,11.9h1.72c5.34,0,8.79,1.53,10.35,4.6,.48,.59,.72,1.22,.72,1.86v.14c0,1.6-2.2,3.28-6.61,5.03v.14c2.1,1.85,3.15,3.23,3.15,4.16v.86c0,2.33-7.23,5.78-21.69,10.35l-3.01,.72-.16-.14,.16-.14v-.43c-.49,0-.73-.1-.73-.29l-.14-.57,1.45-.57v-.14h-.14l-1.88,.29v-.29c.67-.1,1-.24,1-.43h-.14l-.86,.29-.14-.14h-.14l-.86,.14h-.14v-.14l.29-.43v-.14h-.14l-.72,.14-.14-.14v-.14c.9-.78,1.67-1.16,2.29-1.16l-.29-1.43c.81-1.98,4.16-7.34,10.07-16.09-1.8,0-3-.48-3.6-1.43-.37-.11-.75-.78-1.15-2.02,0-1.16,2.16-1.87,6.47-2.15l5.03-.29Zm-8.04,19.97v.14c4.91-1.64,8.4-3.27,10.48-4.89h-2.72c-3.55,0-5.32,.33-5.32,1l-2.44,3.74Zm7.33-11.64c2.89-1,5.33-2,7.33-3.01,0-.29-1.1-.43-3.31-.43h-2.01c-1.34,1.95-2.01,3.1-2.01,3.44Z" style="fill:none; stroke:url(#b); stroke-linecap:round; stroke-linejoin:round; stroke-width:5.44px;"/><path d="M152.93,10.88h.16c1.01,0,2.03,.97,3.06,2.91l.16,.16v.72c0,.46-.76,.85-2.29,1.18v.14c2.35,2.91,3.52,5.63,3.52,8.17v.73c0,6.29-2.71,10.33-8.12,12.12-1.85,.49-3.38,.73-4.59,.73h-1.69c-4.76,0-8.18-2.43-10.27-7.29-.3-.06-.5-.94-.61-2.63v-1.04c0-4.71,3.42-8.99,10.26-12.84,4.32-2.05,7.79-3.07,10.42-3.07Zm-15,17.23v.14c0,1.69,1.07,2.66,3.22,2.91h1.23c3.3,0,6.37-1.9,9.19-5.69,.44-1,.74-2.31,.91-3.95-.09-1.36-.24-2.19-.45-2.48l.14-.43c-.28-1.46-.48-2.2-.61-2.2-3,.4-6.48,2.35-10.42,5.85-2.14,2.08-3.22,4.03-3.22,5.84Z" style="fill:none; stroke:url(#b); stroke-linecap:round; stroke-linejoin:round; stroke-width:5.44px;"/><path d="M177.73,10.21h.3c.45,0,1.04,.34,1.78,1.04l.14,.14h.14l-.14,.59,.14,1.78c-.16,1.58-.7,2.37-1.62,2.37h-.89c-3.87,0-8.7,1.33-14.51,4v.29h.14c7.18,.59,11.13,1.58,11.85,2.96,.69,.4,1.04,1.1,1.04,2.09-.27,3.25-.66,4.87-1.18,4.87-2.23,1.67-4.7,3-7.41,4-4.07,1.39-9.65,2.97-16.74,4.75l-.14-.14v-.16l1.04-.43v-.3l-1.62,.3v-.16c0-.22,.25-.37,.73-.45v-.29h-.45v-.3h.3v-.14l-.89-.3,.14-.14v-.45c-.39,0-.59-.15-.59-.45l-.14,.14h-.3v-.14l.14-.14v-.14h-.29c0-.2-.15-.3-.45-.3v-.14c0-.5,4-1.88,11.99-4.16,5.31-1.84,8.37-3.07,9.19-3.69-8.4-.55-12.6-1.44-12.6-2.68-.99-.64-1.48-1.57-1.48-2.8,0-1.14,.59-2.47,1.78-4,7.22-4.94,14.08-7.41,20.58-7.41Zm-26.5,26.36v.14h.3v-.14h-.3Z" style="fill:none; stroke:url(#b); stroke-linecap:round; stroke-linejoin:round; stroke-width:5.44px;"/><path d="M195.01,10.21h.3c.45,0,1.04,.34,1.78,1.04l.14,.14h.14l-.14,.59,.14,1.78c-.16,1.58-.7,2.37-1.62,2.37h-.89c-3.87,0-8.7,1.33-14.51,4v.29h.14c7.18,.59,11.13,1.58,11.85,2.96,.69,.4,1.04,1.1,1.04,2.09-.27,3.25-.66,4.87-1.18,4.87-2.23,1.67-4.7,3-7.41,4-4.07,1.39-9.65,2.97-16.74,4.75l-.14-.14v-.16l1.04-.43v-.3l-1.62,.3v-.16c0-.22,.25-.37,.73-.45v-.29h-.45v-.3h.3v-.14l-.89-.3,.14-.14v-.45c-.39,0-.59-.15-.59-.45l-.14,.14h-.3v-.14l.14-.14v-.14h-.29c0-.2-.15-.3-.45-.3v-.14c0-.5,4-1.88,11.99-4.16,5.31-1.84,8.37-3.07,9.19-3.69-8.4-.55-12.6-1.44-12.6-2.68-.99-.64-1.48-1.57-1.48-2.8,0-1.14,.59-2.47,1.78-4,7.22-4.94,14.08-7.41,20.58-7.41Zm-26.5,26.36v.14h.3v-.14h-.3Z" style="fill:none; stroke:url(#b); stroke-linecap:round; stroke-linejoin:round; stroke-width:5.44px;"/></g><g><path d="M30.89,11.71h.46c2.68,0,4.53,1.16,5.57,3.47-.24,2.11-.59,3.17-1.05,3.17h-.16c-.63,0-1.68-.3-3.17-.91l-3.01-.3c-5.49,0-10.11,2.26-13.87,6.78-1.61,2.19-2.42,4.55-2.42,7.09,0,1.41,1.06,2.12,3.17,2.12,1.27,0,3.08-.4,5.43-1.21v-.14h-.16l-4.36,.3c0-.28-.4-.63-1.21-1.07l.14-.14v-.16h-.89v-.3l.89-.14v-.14l-1.19-.16v-.3h.45v-.14h-.75v-.16l.3-.45c-.71,0-1.07-.1-1.07-.3,0-.67,6.18-2.08,18.55-4.22,1.16,0,2.01,.7,2.56,2.1l.16,.46c0,1.04-.71,2.15-2.12,3.31,0,.99-2.51,3-7.53,6.04-2.36,1.31-4.67,1.96-6.94,1.96h-1.35c-4.51,0-7.53-2.31-9.06-6.94l-.14-1.35v-.91c0-3.63,2.81-8.01,8.44-13.12,4.16-2.81,8.94-4.22,14.33-4.22Z" style="fill:#fff;"/><path d="M46.2,9.64h.84c2.46,.9,3.69,2.09,3.69,3.55-.64,1.04-3.19,6.38-7.66,16.01l-1.13,1.99,8.79-.57,1.13,.14h.84v.29h-.41v.43h.84v.29l-1.42,.7,.29,.84h.84l1.27,1.29c0,.25-2.79,.77-8.36,1.55-2.36,.48-5.57,1.28-9.64,2.42h-.14c-.52,0-1.42-.76-2.69-2.28v-.14l.14-.13-.14-.14v-1.42c0-.48,.42-1.05,1.27-1.7,4.46-8.25,7.67-15.24,9.63-20.98l-.14-.43c.59-1.14,1.31-1.7,2.13-1.7Z" style="fill:#fff;"/><path d="M73.25,10.88h.16c1.01,0,2.03,.97,3.06,2.91l.16,.16v.72c0,.46-.76,.85-2.29,1.18v.14c2.35,2.91,3.52,5.63,3.52,8.17v.73c0,6.29-2.71,10.33-8.12,12.12-1.85,.49-3.38,.73-4.59,.73h-1.69c-4.76,0-8.18-2.43-10.27-7.29-.3-.06-.5-.94-.6-2.63v-1.04c0-4.71,3.42-8.99,10.26-12.84,4.32-2.05,7.79-3.07,10.42-3.07Zm-15,17.23v.14c0,1.69,1.07,2.66,3.22,2.91h1.23c3.3,0,6.36-1.9,9.19-5.69,.44-1,.74-2.31,.91-3.95-.1-1.36-.24-2.19-.45-2.48l.14-.43c-.28-1.46-.48-2.2-.61-2.2-3,.4-6.48,2.35-10.42,5.85-2.15,2.08-3.22,4.03-3.22,5.84Z" style="fill:#fff;"/><path d="M98.05,10.21h.3c.45,0,1.04,.34,1.78,1.04l.14,.14h.14l-.14,.59,.14,1.78c-.16,1.58-.7,2.37-1.62,2.37h-.89c-3.86,0-8.7,1.33-14.51,4v.29h.14c7.18,.59,11.13,1.58,11.85,2.96,.69,.4,1.04,1.1,1.04,2.09-.27,3.25-.66,4.87-1.18,4.87-2.23,1.67-4.7,3-7.41,4-4.07,1.39-9.65,2.97-16.74,4.75l-.14-.14v-.16l1.04-.43v-.3l-1.62,.3v-.16c0-.22,.24-.37,.73-.45v-.29h-.45v-.3h.3v-.14l-.89-.3,.14-.14v-.45c-.39,0-.59-.15-.59-.45l-.14,.14h-.3v-.14l.14-.14v-.14h-.29c0-.2-.15-.3-.45-.3v-.14c0-.5,4-1.88,11.99-4.16,5.31-1.84,8.37-3.07,9.19-3.69-8.4-.55-12.6-1.44-12.6-2.68-.99-.64-1.48-1.57-1.48-2.8,0-1.14,.59-2.47,1.78-4,7.22-4.94,14.08-7.41,20.58-7.41Zm-26.5,26.36v.14h.3v-.14h-.3Z" style="fill:#fff;"/><path d="M115.33,10.21h.3c.45,0,1.04,.34,1.78,1.04l.14,.14h.14l-.14,.59,.14,1.78c-.16,1.58-.7,2.37-1.62,2.37h-.89c-3.86,0-8.7,1.33-14.51,4v.29h.14c7.18,.59,11.13,1.58,11.85,2.96,.69,.4,1.04,1.1,1.04,2.09-.27,3.25-.66,4.87-1.18,4.87-2.23,1.67-4.7,3-7.41,4-4.07,1.39-9.65,2.97-16.74,4.75l-.14-.14v-.16l1.04-.43v-.3l-1.62,.3v-.16c0-.22,.24-.37,.73-.45v-.29h-.45v-.3h.3v-.14l-.89-.3,.14-.14v-.45c-.39,0-.59-.15-.59-.45l-.14,.14h-.3v-.14l.14-.14v-.14h-.29c0-.2-.15-.3-.45-.3v-.14c0-.5,4-1.88,11.99-4.16,5.31-1.84,8.37-3.07,9.19-3.7-8.4-.55-12.6-1.44-12.6-2.68-.99-.64-1.48-1.57-1.48-2.8,0-1.14,.59-2.47,1.78-4,7.22-4.94,14.08-7.41,20.58-7.41Zm-26.5,26.36v.14h.3v-.14h-.3Z" style="fill:#fff;"/><path d="M123.8,11.9h1.72c5.34,0,8.79,1.53,10.35,4.6,.48,.59,.72,1.22,.72,1.86v.14c0,1.6-2.2,3.28-6.61,5.03v.14c2.1,1.85,3.15,3.23,3.15,4.16v.86c0,2.33-7.23,5.78-21.69,10.35l-3.01,.72-.16-.14,.16-.14v-.43c-.49,0-.73-.1-.73-.29l-.14-.57,1.45-.57v-.14h-.14l-1.88,.29v-.29c.67-.1,1-.24,1-.43h-.14l-.86,.29-.14-.14h-.14l-.86,.14h-.14v-.14l.29-.43v-.14h-.14l-.72,.14-.14-.14v-.14c.9-.78,1.67-1.16,2.29-1.16l-.29-1.43c.81-1.98,4.16-7.34,10.07-16.09-1.8,0-3-.48-3.6-1.43-.37-.11-.75-.78-1.15-2.02,0-1.16,2.16-1.87,6.47-2.15l5.03-.29Zm-8.04,19.97v.14c4.91-1.64,8.4-3.27,10.48-4.89h-2.72c-3.55,0-5.32,.33-5.32,1l-2.44,3.74Zm7.33-11.64c2.89-1,5.33-2,7.33-3.01,0-.29-1.1-.43-3.31-.43h-2.01c-1.34,1.95-2.01,3.1-2.01,3.44Z" style="fill:#fff;"/><path d="M152.93,10.88h.16c1.01,0,2.03,.97,3.06,2.91l.16,.16v.72c0,.46-.76,.85-2.29,1.18v.14c2.35,2.91,3.52,5.63,3.52,8.17v.73c0,6.29-2.71,10.33-8.12,12.12-1.85,.49-3.38,.73-4.59,.73h-1.69c-4.76,0-8.18-2.43-10.27-7.29-.3-.06-.5-.94-.61-2.63v-1.04c0-4.71,3.42-8.99,10.26-12.84,4.32-2.05,7.79-3.07,10.42-3.07Zm-15,17.23v.14c0,1.69,1.07,2.66,3.22,2.91h1.23c3.3,0,6.37-1.9,9.19-5.69,.44-1,.74-2.31,.91-3.95-.09-1.36-.24-2.19-.45-2.48l.14-.43c-.28-1.46-.48-2.2-.61-2.2-3,.4-6.48,2.35-10.42,5.85-2.14,2.08-3.22,4.03-3.22,5.84Z" style="fill:#fff;"/><path d="M177.73,10.21h.3c.45,0,1.04,.34,1.78,1.04l.14,.14h.14l-.14,.59,.14,1.78c-.16,1.58-.7,2.37-1.62,2.37h-.89c-3.87,0-8.7,1.33-14.51,4v.29h.14c7.18,.59,11.13,1.58,11.85,2.96,.69,.4,1.04,1.1,1.04,2.09-.27,3.25-.66,4.87-1.18,4.87-2.23,1.67-4.7,3-7.41,4-4.07,1.39-9.65,2.97-16.74,4.75l-.14-.14v-.16l1.04-.43v-.3l-1.62,.3v-.16c0-.22,.25-.37,.73-.45v-.29h-.45v-.3h.3v-.14l-.89-.3,.14-.14v-.45c-.39,0-.59-.15-.59-.45l-.14,.14h-.3v-.14l.14-.14v-.14h-.29c0-.2-.15-.3-.45-.3v-.14c0-.5,4-1.88,11.99-4.16,5.31-1.84,8.37-3.07,9.19-3.69-8.4-.55-12.6-1.44-12.6-2.68-.99-.64-1.48-1.57-1.48-2.8,0-1.14,.59-2.47,1.78-4,7.22-4.94,14.08-7.41,20.58-7.41Zm-26.5,26.36v.14h.3v-.14h-.3Z" style="fill:#fff;"/><path d="M195.01,10.21h.3c.45,0,1.04,.34,1.78,1.04l.14,.14h.14l-.14,.59,.14,1.78c-.16,1.58-.7,2.37-1.62,2.37h-.89c-3.87,0-8.7,1.33-14.51,4v.29h.14c7.18,.59,11.13,1.58,11.85,2.96,.69,.4,1.04,1.1,1.04,2.09-.27,3.25-.66,4.87-1.18,4.87-2.23,1.67-4.7,3-7.41,4-4.07,1.39-9.65,2.97-16.74,4.75l-.14-.14v-.16l1.04-.43v-.3l-1.62,.3v-.16c0-.22,.25-.37,.73-.45v-.29h-.45v-.3h.3v-.14l-.89-.3,.14-.14v-.45c-.39,0-.59-.15-.59-.45l-.14,.14h-.3v-.14l.14-.14v-.14h-.29c0-.2-.15-.3-.45-.3v-.14c0-.5,4-1.88,11.99-4.16,5.31-1.84,8.37-3.07,9.19-3.69-8.4-.55-12.6-1.44-12.6-2.68-.99-.64-1.48-1.57-1.48-2.8,0-1.14,.59-2.47,1.78-4,7.22-4.94,14.08-7.41,20.58-7.41Zm-26.5,26.36v.14h.3v-.14h-.3Z" style="fill:#fff;"/></g></svg>