<?xml version="1.0" encoding="UTF-8" standalone="no"?>
<!DOCTYPE svg PUBLIC "-//W3C//DTD SVG 1.1//EN" "http://www.w3.org/Graphics/SVG/1.1/DTD/svg11.dtd">
<svg width="100%" height="100%" viewBox="0 0 3518 571" version="1.1" xmlns="http://www.w3.org/2000/svg" xmlns:xlink="http://www.w3.org/1999/xlink" xml:space="preserve" xmlns:serif="http://www.serif.com/" style="fill-rule:evenodd;clip-rule:evenodd;stroke-linejoin:round;stroke-miterlimit:2;">
    <g transform="matrix(1,0,0,1,-161.132,-794.982)">
        <g id="gradient" transform="matrix(1.3671,0,0,1.3671,192.922,624.675)">
            <g transform="matrix(1,0,0,1,-128.866,0)">
                <path d="M403.172,182.881L408.509,182.881C439.428,182.881 460.9,196.254 472.924,223.002C470.102,247.418 466.053,259.626 460.777,259.626L458.937,259.626C451.698,259.626 439.49,256.129 422.312,249.136L387.528,245.639C324.095,245.639 270.662,271.773 227.228,324.041C208.578,349.316 199.253,376.616 199.253,405.94C199.253,422.258 211.461,430.417 235.878,430.417C250.601,430.417 271.521,425.755 298.636,416.43L298.636,414.774L296.796,414.774L246.368,418.271C246.368,415.08 241.706,410.97 232.381,405.94L234.037,404.283L234.037,402.443L223.731,402.443L223.731,398.946L234.037,397.29L234.037,395.633L220.234,393.793L220.234,390.296L225.387,390.296L225.387,388.64L216.737,388.64L216.737,386.799L220.234,381.646C212.014,381.646 207.903,380.481 207.903,378.149C207.903,370.42 279.373,354.163 422.312,329.378C435.686,329.378 445.563,337.476 451.943,353.672L453.784,359.009C453.784,371.033 445.624,383.793 429.306,397.29C429.306,408.7 400.289,431.951 342.254,467.042C315.016,482.133 288.268,489.679 262.012,489.679L246.368,489.679C194.223,489.679 159.316,462.931 141.648,409.437L139.992,393.793L139.992,383.303C139.992,341.341 172.506,290.791 237.534,231.652C285.63,199.138 340.843,182.881 403.172,182.881Z" style="fill:white;fill-rule:nonzero;"/>
                <path d="M458.612,417.253C455.983,422.61 452.098,428.372 446.517,434.308C433.161,448.51 404.561,469.543 360.043,496.461C359.671,496.686 359.295,496.903 358.916,497.114C326.056,515.32 293.687,524.058 262.012,524.058L246.368,524.058C178.306,524.058 132.064,490.042 109.003,420.218C108.235,417.893 107.718,415.492 107.46,413.056L105.803,397.413C105.676,396.21 105.612,395.002 105.612,393.793L105.612,383.303C105.612,334.936 139.45,274.383 214.403,206.217C215.621,205.11 216.916,204.092 218.28,203.17C271.985,166.864 333.574,148.501 403.172,148.501L408.509,148.501C454.642,148.501 486.34,168.997 504.281,208.906C506.822,214.558 507.788,220.793 507.076,226.949C503.449,258.331 494.501,275.947 488.351,282.223C479.798,290.952 470.208,294.006 460.777,294.006L458.937,294.006C449.876,294.006 434.77,290.877 414.103,282.863L386.005,280.038C344.539,280.363 308.341,294.386 277.223,321.699C312.334,314.273 358.736,305.509 416.439,295.504C418.379,295.168 420.344,294.999 422.312,294.999C449.166,294.999 471.119,308.551 483.93,341.071C484.112,341.532 484.283,341.996 484.445,342.464L486.285,347.802C487.528,351.407 488.163,355.195 488.163,359.009C488.163,376.808 479.893,397.176 458.612,417.253ZM403.172,182.881L408.509,182.881C439.428,182.881 460.9,196.254 472.924,223.002C470.102,247.418 466.053,259.626 460.777,259.626L458.937,259.626C451.698,259.626 439.49,256.129 422.312,249.136L387.528,245.639C324.095,245.639 270.662,271.773 227.228,324.041C208.578,349.316 199.253,376.616 199.253,405.94C199.253,422.258 211.461,430.417 235.878,430.417C250.601,430.417 271.521,425.755 298.636,416.43L298.636,414.774L296.796,414.774L246.368,418.271C246.368,415.08 241.706,410.97 232.381,405.94L234.037,404.283L234.037,402.443L223.731,402.443L223.731,398.946L234.037,397.29L234.037,395.633L220.234,393.793L220.234,390.296L225.387,390.296L225.387,388.64L216.737,388.64L216.737,386.799L220.234,381.646C212.014,381.646 207.903,380.481 207.903,378.149C207.903,370.42 279.373,354.163 422.312,329.378C435.686,329.378 445.563,337.476 451.943,353.672L453.784,359.009C453.784,371.033 445.624,383.793 429.306,397.29C429.306,408.7 400.289,431.951 342.254,467.042C315.016,482.133 288.268,489.679 262.012,489.679L246.368,489.679C194.223,489.679 159.316,462.931 141.648,409.437L139.992,393.793L139.992,383.303C139.992,341.341 172.506,290.791 237.534,231.652C285.63,199.138 340.843,182.881 403.172,182.881Z" style="fill:url(#_Linear1);"/>
            </g>
            <g transform="matrix(1,0,0,1,-102.415,0)">
                <path d="M580.037,158.955L589.791,158.955C618.256,169.384 632.489,183.065 632.489,199.997C625.127,212.021 595.619,273.675 543.964,384.959L530.897,407.964L632.489,401.339L645.556,402.995L655.31,402.995L655.31,406.308L650.525,406.308L650.525,411.277L660.279,411.277L660.279,414.59L643.899,422.688L647.212,432.442L656.966,432.442L671.69,447.349C671.69,450.294 639.482,456.245 575.067,465.201C547.829,470.723 510.714,480.047 463.722,493.176L462.066,493.176C456.053,493.176 445.686,484.403 430.962,466.858L430.962,465.201L432.619,463.729L430.962,462.073L430.962,445.693C430.962,440.172 435.87,433.607 445.686,426C497.218,330.666 534.333,249.872 557.031,183.617L555.375,178.648C562.246,165.519 570.466,158.955 580.037,158.955Z" style="fill:white;fill-rule:nonzero;"/>
                <path d="M521.168,181.977C520.515,175.379 521.79,168.677 524.915,162.706C539.507,134.825 559.712,124.576 580.037,124.576L589.791,124.576C593.826,124.576 597.829,125.286 601.618,126.674C648.793,143.958 666.868,171.935 666.868,199.997C666.868,206.332 665.117,212.544 661.809,217.948C655.273,228.624 631.067,279.257 588.963,369.725L630.251,367.032C632.44,366.89 634.636,366.956 636.812,367.232L647.726,368.616L655.31,368.616C669.569,368.616 681.801,377.297 687.007,389.662C691.794,395.564 694.658,403.086 694.658,411.277L694.658,414.59C694.658,416.782 694.45,418.942 694.03,421.044L696.15,423.191C702.505,429.625 706.069,438.305 706.069,447.349C706.069,455.146 704.357,469.052 687.302,478.44C680.808,482.015 645.602,490.064 581.024,499.079C554.457,504.497 518.444,513.584 472.972,526.287C469.961,527.128 466.849,527.555 463.722,527.555L462.066,527.555C455.472,527.555 447.03,525.926 437.57,520.154C429.577,515.276 418.271,505.216 404.627,488.957C399.431,482.765 396.583,474.941 396.583,466.858L396.583,465.201L396.623,463.694L396.583,462.073L396.583,445.693C396.583,434.668 401.626,419.244 418.491,403.968C464.935,317.633 499.214,243.657 521.168,181.977ZM580.037,158.955L589.791,158.955C618.256,169.384 632.489,183.065 632.489,199.997C625.127,212.021 595.619,273.675 543.964,384.959L530.897,407.964L632.489,401.339L645.556,402.995L655.31,402.995L655.31,406.308L650.525,406.308L650.525,411.277L660.279,411.277L660.279,414.59L643.899,422.688L647.212,432.442L656.966,432.442L671.69,447.349C671.69,450.294 639.482,456.245 575.067,465.201C547.829,470.723 510.714,480.047 463.722,493.176L462.066,493.176C456.053,493.176 445.686,484.403 430.962,466.858L430.962,465.201L432.619,463.729L430.962,462.073L430.962,445.693C430.962,440.172 435.87,433.607 445.686,426C497.218,330.666 534.333,249.872 557.031,183.617L555.375,178.648C562.246,165.519 570.466,158.955 580.037,158.955Z" style="fill:url(#_Linear2);"/>
            </g>
            <g transform="matrix(1,0,0,1,-77.998,0)">
                <path d="M892.724,173.31L894.565,173.31C906.221,173.31 917.999,184.537 929.901,206.99L931.741,208.831L931.741,217.112C931.741,222.388 922.907,226.928 905.239,230.732L905.239,232.388C932.355,266.006 945.912,297.478 945.912,326.802L945.912,335.268C945.912,407.903 914.625,454.588 852.051,475.324C830.702,480.968 813.034,483.79 799.047,483.79L779.538,483.79C724.571,483.79 685.002,455.692 660.831,399.498C657.396,398.762 655.064,388.64 653.838,369.131L653.838,357.169C653.838,302.692 693.345,253.246 772.361,208.831C822.297,185.15 862.419,173.31 892.724,173.31ZM719.357,372.444L719.357,374.1C719.357,393.609 731.749,404.835 756.533,407.78L770.704,407.78C808.862,407.78 844.26,385.879 876.897,342.077C881.927,330.544 885.424,315.33 887.387,296.435C886.283,280.73 884.565,271.159 882.234,267.724L883.89,262.755C880.7,245.823 878.369,237.357 876.897,237.357C842.174,242.019 802.053,264.534 756.533,304.901C731.749,328.949 719.357,351.463 719.357,372.444Z" style="fill:white;fill-rule:nonzero;"/>
                <path d="M894.565,138.931C913.781,138.931 937.874,151.323 957.84,186.468C963.168,192.67 966.121,200.598 966.121,208.831L966.121,217.112C966.121,226.245 963.347,235.698 955.337,244.263C972.335,273.16 980.292,300.828 980.292,326.802L980.292,335.268C980.292,425.236 940.372,482.274 862.865,507.958C862.196,508.18 861.52,508.381 860.838,508.561C835.966,515.136 815.342,518.169 799.047,518.169L779.538,518.169C712.434,518.169 662.83,485.945 632.122,419.521C631.494,418.729 630.888,417.888 630.297,417C626.45,411.231 621.102,396.355 619.526,371.289C619.481,370.571 619.458,369.851 619.458,369.131L619.458,357.169C619.458,292.818 662.178,231.327 755.515,178.861C756.207,178.472 756.913,178.107 757.63,177.767C813.564,151.243 858.779,138.931 892.724,138.931L894.565,138.931ZM892.724,173.31L894.565,173.31C906.221,173.31 917.999,184.537 929.901,206.99L931.741,208.831L931.741,217.112C931.741,222.388 922.907,226.928 905.239,230.732L905.239,232.388C932.355,266.006 945.912,297.478 945.912,326.802L945.912,335.268C945.912,407.903 914.625,454.588 852.051,475.324C830.702,480.968 813.034,483.79 799.047,483.79L779.538,483.79C724.571,483.79 685.002,455.692 660.831,399.498C657.396,398.762 655.064,388.64 653.838,369.131L653.838,357.169C653.838,302.692 693.345,253.246 772.361,208.831C822.297,185.15 862.419,173.31 892.724,173.31ZM719.357,372.444L719.357,374.1C719.357,393.609 731.749,404.835 756.533,407.78L770.704,407.78C808.862,407.78 844.26,385.879 876.897,342.077C881.927,330.544 885.424,315.33 887.387,296.435C886.283,280.73 884.565,271.159 882.234,267.724L883.89,262.755C880.7,245.823 878.369,237.357 876.897,237.357C842.174,242.019 802.053,264.534 756.533,304.901C731.749,328.949 719.357,351.463 719.357,372.444ZM850.482,280.87C829.017,290.656 805.649,307.353 779.909,330.129C764.125,345.513 753.913,358.628 753.744,372.094C755.235,372.535 757.213,373.065 759.042,373.401L770.704,373.401C798.476,373.401 822.936,355.873 846.733,324.959C849.603,317.15 851.531,307.434 852.848,295.889C852.316,290.167 851.455,284.384 851.141,282.366L850.878,281.824L850.482,280.87Z" style="fill:url(#_Linear3);"/>
            </g>
            <g transform="matrix(1,0,0,1,-42.9516,0)">
                <path d="M1179.28,165.581L1182.78,165.581C1187.93,165.581 1194.8,169.568 1203.39,177.543L1205.04,179.2L1206.7,179.2L1205.04,186.009L1206.7,206.622C1204.86,224.904 1198.6,234.044 1187.93,234.044L1177.62,234.044C1132.96,234.044 1077.07,249.443 1009.96,280.239L1009.96,283.552L1011.62,283.552C1094.56,290.423 1140.2,301.833 1148.54,317.784C1156.52,322.446 1160.51,330.482 1160.51,341.893C1157.44,379.438 1152.9,398.21 1146.89,398.21C1121.12,417.473 1092.59,432.871 1061.31,444.405C1014.32,460.478 949.839,478.759 867.879,499.249L866.222,497.593L866.222,495.752L878.185,490.783L878.185,487.286L859.413,490.783L859.413,488.943C859.413,486.366 862.235,484.648 867.879,483.79L867.879,480.477L862.725,480.477L862.725,476.98L866.222,476.98L866.222,475.324L855.916,471.827L857.572,470.17L857.572,465.017C853.033,465.017 850.763,463.3 850.763,459.864L849.106,461.52L845.609,461.52L845.609,459.864L847.266,458.208L847.266,456.551L843.953,456.551C843.953,454.22 842.235,453.055 838.8,453.055L838.8,451.398C838.8,445.631 884.995,429.62 977.384,403.363C1038.73,382.137 1074.13,367.904 1083.58,360.665C986.524,354.285 937.999,343.979 937.999,329.746C926.588,322.385 920.883,311.587 920.883,297.355C920.883,284.226 927.754,268.828 941.495,251.16C1024.93,194.107 1104.19,165.581 1179.28,165.581Z" style="fill:white;fill-rule:nonzero;"/>
                <path d="M909.532,351.221C894.322,337.804 886.503,319.924 886.503,297.355C886.503,278.451 894.571,255.494 914.358,230.053C916.543,227.244 919.151,224.791 922.089,222.782C1012.22,161.147 1098.16,131.201 1179.28,131.201C1179.28,131.201 1182.78,131.201 1182.78,131.201C1192.53,131.201 1206.81,135.309 1222.79,148.834C1226.99,151.043 1230.73,154.133 1233.73,157.956C1240.25,166.25 1242.6,177.076 1240.11,187.325L1239.76,188.765L1240.97,203.868C1241.13,205.932 1241.11,208.006 1240.91,210.066C1236.54,253.425 1213.25,268.424 1187.93,268.424C1187.93,268.424 1177.62,268.424 1177.62,268.424C1166.33,268.424 1154.27,269.556 1141.43,271.795C1142.51,272.215 1143.55,272.644 1144.56,273.077C1157.66,278.718 1166.72,285.687 1172.74,292.702C1186.71,303.454 1194.88,319.44 1194.88,341.893C1194.88,342.827 1194.85,343.761 1194.77,344.692C1191.5,384.707 1183.97,408.083 1178.19,416.086C1173.41,422.703 1168.05,426.866 1162.56,429.347C1135.47,448.901 1105.65,464.699 1072.43,476.934C1024.76,493.239 959.362,511.816 876.217,532.602C864.501,535.531 852.108,532.098 843.569,523.559L841.912,521.903C840.766,520.756 839.709,519.537 838.75,518.253L837.441,517.225C829.58,510.694 825.033,501.003 825.033,490.783L825.033,489.065C821.268,486.247 818.099,482.676 815.759,478.568C808.795,472.277 804.421,463.177 804.421,453.055C804.421,453.055 804.421,451.398 804.421,451.398C804.421,444.679 806.622,427.875 828.152,416.381C842.319,408.818 882.163,395.135 947.928,376.059C937.562,372.997 929.939,369.806 925.038,366.609C917.839,361.913 912.86,356.661 909.532,351.221ZM1179.28,165.581L1182.78,165.581C1187.93,165.581 1194.8,169.568 1203.39,177.543L1205.04,179.2L1206.7,179.2L1205.04,186.009L1206.7,206.622C1204.86,224.904 1198.6,234.044 1187.93,234.044L1177.62,234.044C1132.96,234.044 1077.07,249.443 1009.96,280.239L1009.96,283.552L1011.62,283.552C1094.56,290.423 1140.2,301.833 1148.54,317.784C1156.52,322.446 1160.51,330.482 1160.51,341.893C1157.44,379.438 1152.9,398.21 1146.89,398.21C1121.12,417.473 1092.59,432.871 1061.31,444.405C1014.32,460.478 949.839,478.759 867.879,499.249L866.222,497.593L866.222,495.752L878.185,490.783L878.185,487.286L859.413,490.783L859.413,488.943C859.413,486.366 862.235,484.648 867.879,483.79L867.879,480.477L862.725,480.477L862.725,476.98L866.222,476.98L866.222,475.324L855.916,471.827L857.572,470.17L857.572,465.017C853.033,465.017 850.763,463.3 850.763,459.864L849.106,461.52L845.609,461.52L845.609,459.864L847.266,458.208L847.266,456.551L843.953,456.551C843.953,454.22 842.235,453.055 838.8,453.055L838.8,451.398C838.8,445.631 884.995,429.62 977.384,403.363C1038.73,382.137 1074.13,367.904 1083.58,360.665C986.524,354.285 937.999,343.979 937.999,329.746C926.588,322.385 920.883,311.587 920.883,297.355C920.883,284.226 927.754,268.828 941.495,251.16C1024.93,194.107 1104.19,165.581 1179.28,165.581ZM809.738,459.917L809.743,459.951L809.672,459.028L809.738,459.917ZM809.618,458.293L809.574,456.551C809.574,457.141 809.588,457.722 809.618,458.293Z" style="fill:url(#_Linear4);"/>
            </g>
            <g transform="matrix(1,0,0,1,-11.2829,0)">
                <path d="M1378.96,165.581L1382.46,165.581C1387.61,165.581 1394.49,169.568 1403.07,177.543L1404.73,179.2L1406.39,179.2L1404.73,186.009L1406.39,206.622C1404.55,224.904 1398.29,234.044 1387.61,234.044L1377.31,234.044C1332.65,234.044 1276.76,249.443 1209.64,280.239L1209.64,283.552L1211.3,283.552C1294.24,290.423 1339.88,301.833 1348.23,317.784C1356.2,322.446 1360.19,330.482 1360.19,341.893C1357.12,379.438 1352.58,398.21 1346.57,398.21C1320.81,417.473 1292.28,432.871 1260.99,444.405C1214,460.478 1149.52,478.759 1067.56,499.249L1065.91,497.593L1065.91,495.752L1077.87,490.783L1077.87,487.286L1059.1,490.783L1059.1,488.943C1059.1,486.366 1061.92,484.648 1067.56,483.79L1067.56,480.477L1062.41,480.477L1062.41,476.98L1065.91,476.98L1065.91,475.324L1055.6,471.827L1057.26,470.17L1057.26,465.017C1052.72,465.017 1050.45,463.3 1050.45,459.864L1048.79,461.52L1045.3,461.52L1045.3,459.864L1046.95,458.208L1046.95,456.551L1043.64,456.551C1043.64,454.22 1041.92,453.055 1038.49,453.055L1038.49,451.398C1038.49,445.631 1084.68,429.62 1177.07,403.363C1238.42,382.137 1273.81,367.904 1283.26,360.665C1186.21,354.285 1137.68,343.979 1137.68,329.746C1126.27,322.385 1120.57,311.587 1120.57,297.355C1120.57,284.226 1127.44,268.828 1141.18,251.16C1224.61,194.107 1303.88,165.581 1378.96,165.581Z" style="fill:white;fill-rule:nonzero;"/>
                <path d="M1109.22,351.221C1094.01,337.804 1086.19,319.924 1086.19,297.355C1086.19,278.451 1094.26,255.494 1114.04,230.053C1116.23,227.244 1118.84,224.791 1121.78,222.782C1211.91,161.147 1297.85,131.201 1378.96,131.201C1378.96,131.201 1382.46,131.201 1382.46,131.201C1392.21,131.201 1406.49,135.309 1422.48,148.834C1426.67,151.043 1430.41,154.133 1433.42,157.956C1439.93,166.25 1442.28,177.076 1439.79,187.325L1439.44,188.765L1440.65,203.868C1440.82,205.932 1440.8,208.006 1440.59,210.066C1436.23,253.425 1412.93,268.424 1387.61,268.424C1387.61,268.424 1377.31,268.424 1377.31,268.424C1366.02,268.424 1353.96,269.556 1341.12,271.795C1342.2,272.215 1343.24,272.644 1344.24,273.077C1357.35,278.718 1366.4,285.687 1372.42,292.702C1386.39,303.454 1394.57,319.44 1394.57,341.893C1394.57,342.827 1394.53,343.761 1394.46,344.692C1391.19,384.707 1383.65,408.083 1377.87,416.086C1373.1,422.703 1367.73,426.866 1362.25,429.347C1335.16,448.901 1305.34,464.699 1272.12,476.934C1224.45,493.239 1159.05,511.816 1075.9,532.602C1064.19,535.531 1051.79,532.098 1043.26,523.559L1041.6,521.903C1040.45,520.756 1039.39,519.537 1038.43,518.253L1037.13,517.225C1029.27,510.694 1024.72,501.003 1024.72,490.783L1024.72,489.065C1020.95,486.247 1017.78,482.676 1015.45,478.568C1008.48,472.277 1004.11,463.177 1004.11,453.055L1004.11,451.398C1004.11,444.679 1006.31,427.875 1027.84,416.381C1042.01,408.818 1081.85,395.135 1147.61,376.059C1137.25,372.997 1129.62,369.806 1124.72,366.609C1117.53,361.913 1112.55,356.661 1109.22,351.221ZM1378.96,165.581L1382.46,165.581C1387.61,165.581 1394.49,169.568 1403.07,177.543L1404.73,179.2L1406.39,179.2L1404.73,186.009L1406.39,206.622C1404.55,224.904 1398.29,234.044 1387.61,234.044L1377.31,234.044C1332.65,234.044 1276.76,249.443 1209.64,280.239L1209.64,283.552L1211.3,283.552C1294.24,290.423 1339.88,301.833 1348.23,317.784C1356.2,322.446 1360.19,330.482 1360.19,341.893C1357.12,379.438 1352.58,398.21 1346.57,398.21C1320.81,417.473 1292.28,432.871 1260.99,444.405C1214,460.478 1149.52,478.759 1067.56,499.249L1065.91,497.593L1065.91,495.752L1077.87,490.783L1077.87,487.286L1059.1,490.783L1059.1,488.943C1059.1,486.366 1061.92,484.648 1067.56,483.79L1067.56,480.477L1062.41,480.477L1062.41,476.98L1065.91,476.98L1065.91,475.324L1055.6,471.827L1057.26,470.17L1057.26,465.017C1052.72,465.017 1050.45,463.3 1050.45,459.864L1048.79,461.52L1045.3,461.52L1045.3,459.864L1046.95,458.208L1046.95,456.551L1043.64,456.551C1043.64,454.22 1041.92,453.055 1038.49,453.055L1038.49,451.398C1038.49,445.631 1084.68,429.62 1177.07,403.363C1238.42,382.137 1273.81,367.904 1283.26,360.665C1186.21,354.285 1137.68,343.979 1137.68,329.746C1126.27,322.385 1120.57,311.587 1120.57,297.355C1120.57,284.226 1127.44,268.828 1141.18,251.16C1224.61,194.107 1303.88,165.581 1378.96,165.581ZM1009.42,459.917L1009.43,459.951L1009.36,459.028L1009.42,459.917ZM1009.3,458.293L1009.26,456.551C1009.26,457.141 1009.27,457.722 1009.3,458.293Z" style="fill:url(#_Linear5);"/>
            </g>
            <g transform="matrix(1,0,0,1,50.4102,0)">
                <path d="M1476.87,185.089L1496.75,185.089C1558.47,185.089 1598.34,202.818 1616.38,238.277C1621.9,245.148 1624.66,252.326 1624.66,259.81L1624.66,261.467C1624.66,279.994 1599.2,299.379 1548.28,319.624L1548.28,321.28C1572.58,342.629 1584.72,358.641 1584.72,369.315L1584.72,379.254C1584.72,406.124 1501.17,446 1334.06,498.881L1299.27,507.163L1297.43,505.507L1299.27,503.85L1299.27,498.881C1293.63,498.881 1290.81,497.777 1290.81,495.568L1289.15,488.943L1305.9,482.317L1305.9,480.661L1304.24,480.661L1282.53,483.974L1282.53,480.661C1290.26,479.557 1294.12,477.9 1294.12,475.692L1292.46,475.692L1282.53,479.004L1280.87,477.348L1279.21,477.348L1269.28,479.004L1267.62,479.004L1267.62,477.348L1270.93,472.379L1270.93,470.723L1269.28,470.723L1260.99,472.379L1259.34,470.723L1259.34,469.066C1269.77,460.109 1278.6,455.631 1285.84,455.631L1282.53,439.067C1291.85,416.246 1330.62,354.285 1398.84,253.185C1377.98,253.185 1364.12,247.663 1357.25,236.621C1352.95,235.394 1348.54,227.603 1344,213.248C1344,199.874 1368.9,191.592 1418.72,188.402L1476.87,185.089ZM1468.59,281.343C1501.96,269.81 1530.18,258.215 1553.25,246.559C1553.25,243.246 1540.49,241.59 1514.97,241.59L1491.78,241.59C1476.32,264.166 1468.59,277.417 1468.59,281.343ZM1383.93,415.878L1383.93,417.534C1440.62,398.639 1480.98,379.806 1505.03,361.033L1473.56,361.033C1432.58,361.033 1412.09,364.898 1412.09,372.628L1383.93,415.878Z" style="fill:white;fill-rule:nonzero;"/>
                <path d="M1333.45,262.192C1331.3,260.455 1329.17,258.391 1327.1,255.943C1322.21,250.162 1316.3,239.679 1311.22,223.614C1310.16,220.26 1309.62,216.764 1309.62,213.248C1309.62,199.075 1315.35,185.23 1331.19,174.295C1344.39,165.176 1372.5,156.912 1416.52,154.093C1416.6,154.088 1416.68,154.083 1416.76,154.078L1474.92,150.765C1475.57,150.728 1476.22,150.71 1476.87,150.71C1476.87,150.71 1496.75,150.71 1496.75,150.71C1573.5,150.71 1621.82,176.346 1645.39,219.624C1654.82,232.441 1659.04,245.962 1659.04,259.81C1659.04,259.81 1659.04,261.467 1659.04,261.467C1659.04,276.707 1652.79,293.314 1636.03,309.119C1628.51,316.219 1618.13,323.61 1604.78,331.081C1607.72,335.098 1610.07,338.842 1611.88,342.282C1617.19,352.39 1619.1,361.54 1619.1,369.315C1619.1,369.315 1619.1,379.254 1619.1,379.254C1619.1,394.443 1610.06,415.623 1581.72,435.224C1545.17,460.502 1466.26,493.106 1344.43,531.658C1343.63,531.91 1342.83,532.132 1342.02,532.325L1307.24,540.607C1296.25,543.224 1284.67,540.274 1276.28,532.717L1274.43,531.061C1271.85,528.735 1269.66,526.057 1267.92,523.126C1264.43,519.966 1261.91,516.316 1260.15,512.561C1252.06,510.774 1245.05,506.136 1240.21,499.753C1238.97,498.825 1237.79,497.8 1236.68,496.689L1235.03,495.032C1228.58,488.585 1224.96,479.841 1224.96,470.723L1224.96,469.066C1224.96,459.042 1229.33,449.516 1236.94,442.985C1240.87,439.604 1244.74,436.686 1248.51,434.198C1248.89,431.418 1249.63,428.687 1250.7,426.064C1259.08,405.56 1290.18,354.251 1344.54,272.48C1340.31,269.414 1336.63,265.961 1333.45,262.192ZM1476.87,185.089L1496.75,185.089C1558.47,185.089 1598.34,202.818 1616.38,238.277C1621.9,245.148 1624.66,252.326 1624.66,259.81L1624.66,261.467C1624.66,279.994 1599.2,299.379 1548.28,319.624L1548.28,321.28C1572.58,342.629 1584.72,358.641 1584.72,369.315L1584.72,379.254C1584.72,406.124 1501.17,446 1334.06,498.881L1299.27,507.163L1297.43,505.507L1299.27,503.85L1299.27,498.881C1293.63,498.881 1290.81,497.777 1290.81,495.568L1289.15,488.943L1305.9,482.317L1305.9,480.661L1304.24,480.661L1282.53,483.974L1282.53,480.661C1290.26,479.557 1294.12,477.9 1294.12,475.692L1292.46,475.692L1282.53,479.004L1280.87,477.348L1279.21,477.348L1269.28,479.004L1267.62,479.004L1267.62,477.348L1270.93,472.379L1270.93,470.723L1269.28,470.723L1260.99,472.379L1259.34,470.723L1259.34,469.066C1269.77,460.109 1278.6,455.631 1285.84,455.631L1282.53,439.067C1291.85,416.246 1330.62,354.285 1398.84,253.185C1377.98,253.185 1364.12,247.663 1357.25,236.621C1352.95,235.394 1348.54,227.603 1344,213.248C1344,199.874 1368.9,191.592 1418.72,188.402L1476.87,185.089ZM1383.93,415.878L1383.93,417.534C1440.62,398.639 1480.98,379.806 1505.03,361.033L1473.56,361.033C1432.58,361.033 1412.09,364.898 1412.09,372.628L1383.93,415.878ZM1468.59,281.343C1501.96,269.81 1530.18,258.215 1553.25,246.559C1553.25,243.246 1540.49,241.59 1514.97,241.59L1491.78,241.59C1476.32,264.166 1468.59,277.417 1468.59,281.343Z" style="fill:url(#_Linear6);"/>
            </g>
            <g transform="matrix(1,0,0,1,88.77,0)">
                <path d="M1813.49,173.31L1815.33,173.31C1826.98,173.31 1838.76,184.537 1850.66,206.99L1852.5,208.831L1852.5,217.112C1852.5,222.388 1843.67,226.928 1826,230.732L1826,232.388C1853.12,266.006 1866.68,297.478 1866.68,326.802L1866.68,335.268C1866.68,407.903 1835.39,454.588 1772.81,475.324C1751.47,480.968 1733.8,483.79 1719.81,483.79L1700.3,483.79C1645.33,483.79 1605.77,455.692 1581.59,399.498C1578.16,398.762 1575.83,388.64 1574.6,369.131L1574.6,357.169C1574.6,302.692 1614.11,253.246 1693.12,208.831C1743.06,185.15 1783.18,173.31 1813.49,173.31ZM1640.12,372.444L1640.12,374.1C1640.12,393.609 1652.51,404.835 1677.3,407.78L1691.47,407.78C1729.63,407.78 1765.02,385.879 1797.66,342.077C1802.69,330.544 1806.19,315.33 1808.15,296.435C1807.05,280.73 1805.33,271.159 1803,267.724L1804.65,262.755C1801.46,245.823 1799.13,237.357 1797.66,237.357C1762.94,242.019 1722.82,264.534 1677.3,304.901C1652.51,328.949 1640.12,351.463 1640.12,372.444Z" style="fill:white;fill-rule:nonzero;"/>
                <path d="M1815.33,138.931C1834.54,138.931 1858.64,151.323 1878.6,186.468C1883.93,192.67 1886.88,200.598 1886.88,208.831L1886.88,217.112C1886.88,226.245 1884.11,235.698 1876.1,244.263C1893.1,273.16 1901.06,300.828 1901.06,326.802C1901.06,326.802 1901.06,335.268 1901.06,335.268C1901.06,425.236 1861.13,482.274 1783.63,507.958C1782.96,508.18 1782.28,508.381 1781.6,508.561C1756.73,515.136 1736.11,518.169 1719.81,518.169L1700.3,518.169C1633.2,518.169 1583.59,485.945 1552.88,419.521C1552.26,418.729 1551.65,417.888 1551.06,417C1547.21,411.231 1541.87,396.355 1540.29,371.289C1540.24,370.571 1540.22,369.851 1540.22,369.131L1540.22,357.169C1540.22,292.818 1582.94,231.327 1676.28,178.861C1676.97,178.472 1677.68,178.107 1678.39,177.767C1734.33,151.243 1779.54,138.931 1813.49,138.931L1815.33,138.931ZM1813.49,173.31L1815.33,173.31C1826.98,173.31 1838.76,184.537 1850.66,206.99L1852.5,208.831L1852.5,217.112C1852.5,222.388 1843.67,226.928 1826,230.732L1826,232.388C1853.12,266.006 1866.68,297.478 1866.68,326.802L1866.68,335.268C1866.68,407.903 1835.39,454.588 1772.81,475.324C1751.47,480.968 1733.8,483.79 1719.81,483.79L1700.3,483.79C1645.33,483.79 1605.77,455.692 1581.59,399.498C1578.16,398.762 1575.83,388.64 1574.6,369.131L1574.6,357.169C1574.6,302.692 1614.11,253.246 1693.12,208.831C1743.06,185.15 1783.18,173.31 1813.49,173.31ZM1640.12,372.444L1640.12,374.1C1640.12,393.609 1652.51,404.835 1677.3,407.78L1691.47,407.78C1729.63,407.78 1765.02,385.879 1797.66,342.077C1802.69,330.544 1806.19,315.33 1808.15,296.435C1807.05,280.73 1805.33,271.159 1803,267.724L1804.65,262.755C1801.46,245.823 1799.13,237.357 1797.66,237.357C1762.94,242.019 1722.82,264.534 1677.3,304.901C1652.51,328.949 1640.12,351.463 1640.12,372.444ZM1771.25,280.87C1749.78,290.656 1726.41,307.353 1700.67,330.129C1684.89,345.513 1674.68,358.628 1674.51,372.094C1676,372.535 1677.98,373.065 1679.81,373.401L1691.47,373.401C1719.24,373.401 1743.7,355.873 1767.5,324.959C1770.37,317.15 1772.29,307.434 1773.61,295.889C1773.08,290.167 1772.22,284.384 1771.9,282.366L1771.64,281.824L1771.25,280.87Z" style="fill:url(#_Linear7);"/>
            </g>
            <g transform="matrix(1,0,0,1,132.83,0)">
                <path d="M2100.04,165.581L2103.54,165.581C2108.69,165.581 2115.56,169.568 2124.15,177.543L2125.81,179.2L2127.46,179.2L2125.81,186.009L2127.46,206.622C2125.62,224.904 2119.37,234.044 2108.69,234.044L2098.39,234.044C2053.72,234.044 1997.84,249.443 1930.72,280.239L1930.72,283.552L1932.38,283.552C2015.32,290.423 2060.96,301.833 2069.31,317.784C2077.28,322.446 2081.27,330.482 2081.27,341.893C2078.2,379.438 2073.66,398.21 2067.65,398.21C2041.88,417.473 2013.36,432.871 1982.07,444.405C1935.08,460.478 1870.6,478.759 1788.64,499.249L1786.99,497.593L1786.99,495.752L1798.95,490.783L1798.95,487.286L1780.18,490.783L1780.18,488.943C1780.18,486.366 1783,484.648 1788.64,483.79L1788.64,480.477L1783.49,480.477L1783.49,476.98L1786.99,476.98L1786.99,475.324L1776.68,471.827L1778.34,470.17L1778.34,465.017C1773.8,465.017 1771.53,463.3 1771.53,459.864L1769.87,461.52L1766.37,461.52L1766.37,459.864L1768.03,458.208L1768.03,456.551L1764.72,456.551C1764.72,454.22 1763,453.055 1759.56,453.055L1759.56,451.398C1759.56,445.631 1805.76,429.62 1898.15,403.363C1959.49,382.137 1994.89,367.904 2004.34,360.665C1907.29,354.285 1858.76,343.979 1858.76,329.746C1847.35,322.385 1841.65,311.587 1841.65,297.355C1841.65,284.226 1848.52,268.828 1862.26,251.16C1945.69,194.107 2024.95,165.581 2100.04,165.581Z" style="fill:white;fill-rule:nonzero;"/>
                <path d="M1830.3,351.221C1815.09,337.804 1807.27,319.924 1807.27,297.355C1807.27,278.451 1815.33,255.494 1835.12,230.053C1837.31,227.244 1839.91,224.791 1842.85,222.782C1932.99,161.147 2018.92,131.201 2100.04,131.201C2100.04,131.201 2103.54,131.201 2103.54,131.201C2113.29,131.201 2127.57,135.309 2143.56,148.834C2147.75,151.043 2151.49,154.133 2154.49,157.956C2161.01,166.25 2163.36,177.076 2160.87,187.325L2160.52,188.765L2161.73,203.868C2161.9,205.932 2161.88,208.006 2161.67,210.066C2157.3,253.425 2134.01,268.424 2108.69,268.424C2108.69,268.424 2098.39,268.424 2098.39,268.424C2087.09,268.424 2075.03,269.556 2062.2,271.795C2063.28,272.215 2064.32,272.644 2065.32,273.077C2078.42,278.718 2087.48,285.687 2093.5,292.702C2107.47,303.454 2115.65,319.44 2115.65,341.893C2115.65,342.827 2115.61,343.761 2115.53,344.692C2112.26,384.707 2104.73,408.083 2098.95,416.086C2094.17,422.703 2088.81,426.866 2083.32,429.347C2056.24,448.901 2026.41,464.699 1993.2,476.934C1945.53,493.239 1880.12,511.816 1796.98,532.602C1785.26,535.531 1772.87,532.098 1764.33,523.559L1762.67,521.903C1761.53,520.756 1760.47,519.537 1759.51,518.253L1758.2,517.225C1750.34,510.694 1745.8,501.003 1745.8,490.783L1745.8,489.065C1742.03,486.247 1738.86,482.676 1736.52,478.568C1729.56,472.277 1725.18,463.177 1725.18,453.055L1725.18,451.398C1725.18,444.679 1727.38,427.875 1748.91,416.381C1763.08,408.818 1802.93,395.135 1868.69,376.059C1858.33,372.997 1850.7,369.806 1845.8,366.609C1838.6,361.913 1833.62,356.661 1830.3,351.221ZM2100.04,165.581L2103.54,165.581C2108.69,165.581 2115.56,169.568 2124.15,177.543L2125.81,179.2L2127.46,179.2L2125.81,186.009L2127.46,206.622C2125.62,224.904 2119.37,234.044 2108.69,234.044L2098.39,234.044C2053.72,234.044 1997.84,249.443 1930.72,280.239L1930.72,283.552L1932.38,283.552C2015.32,290.423 2060.96,301.833 2069.31,317.784C2077.28,322.446 2081.27,330.482 2081.27,341.893C2078.2,379.438 2073.66,398.21 2067.65,398.21C2041.88,417.473 2013.36,432.871 1982.07,444.405C1935.08,460.478 1870.6,478.759 1788.64,499.249L1786.99,497.593L1786.99,495.752L1798.95,490.783L1798.95,487.286L1780.18,490.783L1780.18,488.943C1780.18,486.366 1783,484.648 1788.64,483.79L1788.64,480.477L1783.49,480.477L1783.49,476.98L1786.99,476.98L1786.99,475.324L1776.68,471.827L1778.34,470.17L1778.34,465.017C1773.8,465.017 1771.53,463.3 1771.53,459.864L1769.87,461.52L1766.37,461.52L1766.37,459.864L1768.03,458.208L1768.03,456.551L1764.72,456.551C1764.72,454.22 1763,453.055 1759.56,453.055L1759.56,451.398C1759.56,445.631 1805.76,429.62 1898.15,403.363C1959.49,382.137 1994.89,367.904 2004.34,360.665C1907.29,354.285 1858.76,343.979 1858.76,329.746C1847.35,322.385 1841.65,311.587 1841.65,297.355C1841.65,284.226 1848.52,268.828 1862.26,251.16C1945.69,194.107 2024.95,165.581 2100.04,165.581ZM1730.5,459.917L1730.51,459.951L1730.43,459.028L1730.5,459.917ZM1730.38,458.293L1730.34,456.551C1730.34,457.141 1730.35,457.722 1730.38,458.293Z" style="fill:url(#_Linear8);"/>
            </g>
            <g transform="matrix(1,0,0,1,188.354,0)">
                <path d="M2299.73,165.581L2303.22,165.581C2308.38,165.581 2315.25,169.568 2323.84,177.543L2325.49,179.2L2327.15,179.2L2325.49,186.009L2327.15,206.622C2325.31,224.904 2319.05,234.044 2308.38,234.044L2298.07,234.044C2253.41,234.044 2197.52,249.443 2130.41,280.239L2130.41,283.552L2132.06,283.552C2215.01,290.423 2260.65,301.833 2268.99,317.784C2276.97,322.446 2280.95,330.482 2280.95,341.893C2277.89,379.438 2273.35,398.21 2267.34,398.21C2241.57,417.473 2213.04,432.871 2181.76,444.405C2134.76,460.478 2070.29,478.759 1988.33,499.249L1986.67,497.593L1986.67,495.752L1998.63,490.783L1998.63,487.286L1979.86,490.783L1979.86,488.943C1979.86,486.366 1982.68,484.648 1988.33,483.79L1988.33,480.477L1983.17,480.477L1983.17,476.98L1986.67,476.98L1986.67,475.324L1976.37,471.827L1978.02,470.17L1978.02,465.017C1973.48,465.017 1971.21,463.3 1971.21,459.864L1969.56,461.52L1966.06,461.52L1966.06,459.864L1967.72,458.208L1967.72,456.551L1964.4,456.551C1964.4,454.22 1962.68,453.055 1959.25,453.055L1959.25,451.398C1959.25,445.631 2005.44,429.62 2097.83,403.363C2159.18,382.137 2194.58,367.904 2204.03,360.665C2106.97,354.285 2058.45,343.979 2058.45,329.746C2047.04,322.385 2041.33,311.587 2041.33,297.355C2041.33,284.226 2048.2,268.828 2061.94,251.16C2145.38,194.107 2224.64,165.581 2299.73,165.581Z" style="fill:white;fill-rule:nonzero;"/>
                <path d="M2029.98,351.221C2014.77,337.804 2006.95,319.924 2006.95,297.355C2006.95,278.451 2015.02,255.494 2034.81,230.053C2036.99,227.244 2039.6,224.791 2042.54,222.782C2132.67,161.147 2218.61,131.201 2299.73,131.201C2299.73,131.201 2303.22,131.201 2303.22,131.201C2312.98,131.201 2327.26,135.309 2343.24,148.834C2347.44,151.043 2351.18,154.133 2354.18,157.956C2360.7,166.25 2363.05,177.076 2360.55,187.325L2360.2,188.765L2361.42,203.868C2361.58,205.932 2361.56,208.006 2361.36,210.066C2356.99,253.425 2333.69,268.424 2308.38,268.424C2308.38,268.424 2298.07,268.424 2298.07,268.424C2286.78,268.424 2274.72,269.556 2261.88,271.795C2262.96,272.215 2264,272.644 2265.01,273.077C2278.11,278.718 2287.17,285.687 2293.18,292.702C2307.16,303.454 2315.33,319.44 2315.33,341.893C2315.33,342.827 2315.3,343.761 2315.22,344.692C2311.95,384.707 2304.42,408.083 2298.64,416.086C2293.86,422.703 2288.5,426.866 2283.01,429.347C2255.92,448.901 2226.1,464.699 2192.88,476.934C2145.21,493.239 2079.81,511.816 1996.67,532.602C1984.95,535.531 1972.56,532.098 1964.02,523.559L1962.36,521.903C1961.22,520.756 1960.16,519.537 1959.2,518.253L1957.89,517.225C1950.03,510.694 1945.48,501.003 1945.48,490.783L1945.48,489.065C1941.72,486.247 1938.55,482.676 1936.21,478.568C1929.24,472.277 1924.87,463.177 1924.87,453.055L1924.87,451.398C1924.87,444.679 1927.07,427.875 1948.6,416.381C1962.77,408.818 2002.61,395.135 2068.38,376.059C2058.01,372.997 2050.39,369.806 2045.49,366.609C2038.29,361.913 2033.31,356.661 2029.98,351.221ZM2299.73,165.581L2303.22,165.581C2308.38,165.581 2315.25,169.568 2323.84,177.543L2325.49,179.2L2327.15,179.2L2325.49,186.009L2327.15,206.622C2325.31,224.904 2319.05,234.044 2308.38,234.044L2298.07,234.044C2253.41,234.044 2197.52,249.443 2130.41,280.239L2130.41,283.552L2132.06,283.552C2215.01,290.423 2260.65,301.833 2268.99,317.784C2276.97,322.446 2280.95,330.482 2280.95,341.893C2277.89,379.438 2273.35,398.21 2267.34,398.21C2241.57,417.473 2213.04,432.871 2181.76,444.405C2134.76,460.478 2070.29,478.759 1988.33,499.249L1986.67,497.593L1986.67,495.752L1998.63,490.783L1998.63,487.286L1979.86,490.783L1979.86,488.943C1979.86,486.366 1982.68,484.648 1988.33,483.79L1988.33,480.477L1983.17,480.477L1983.17,476.98L1986.67,476.98L1986.67,475.324L1976.37,471.827L1978.02,470.17L1978.02,465.017C1973.48,465.017 1971.21,463.3 1971.21,459.864L1969.56,461.52L1966.06,461.52L1966.06,459.864L1967.72,458.208L1967.72,456.551L1964.4,456.551C1964.4,454.22 1962.68,453.055 1959.25,453.055L1959.25,451.398C1959.25,445.631 2005.44,429.62 2097.83,403.363C2159.18,382.137 2194.58,367.904 2204.03,360.665C2106.97,354.285 2058.45,343.979 2058.45,329.746C2047.04,322.385 2041.33,311.587 2041.33,297.355C2041.33,284.226 2048.2,268.828 2061.94,251.16C2145.38,194.107 2224.64,165.581 2299.73,165.581ZM1930.19,459.917L1930.19,459.951L1930.12,459.028L1930.19,459.917Z" style="fill:url(#_Linear9);"/>
            </g>
        </g>
    </g>
    <defs>
        <linearGradient id="_Linear1" x1="0" y1="0" x2="1" y2="0" gradientUnits="userSpaceOnUse" gradientTransform="matrix(2504.38,0,0,348.208,11.1254,333.059)"><stop offset="0" style="stop-color:rgb(255,81,0);stop-opacity:1"/><stop offset="1" style="stop-color:rgb(82,0,213);stop-opacity:1"/></linearGradient>
        <linearGradient id="_Linear2" x1="0" y1="0" x2="1" y2="0" gradientUnits="userSpaceOnUse" gradientTransform="matrix(2504.38,0,0,348.208,11.1254,333.059)"><stop offset="0" style="stop-color:rgb(255,81,0);stop-opacity:1"/><stop offset="1" style="stop-color:rgb(82,0,213);stop-opacity:1"/></linearGradient>
        <linearGradient id="_Linear3" x1="0" y1="0" x2="1" y2="0" gradientUnits="userSpaceOnUse" gradientTransform="matrix(2504.38,0,0,348.208,11.1254,333.059)"><stop offset="0" style="stop-color:rgb(255,81,0);stop-opacity:1"/><stop offset="1" style="stop-color:rgb(82,0,213);stop-opacity:1"/></linearGradient>
        <linearGradient id="_Linear4" x1="0" y1="0" x2="1" y2="0" gradientUnits="userSpaceOnUse" gradientTransform="matrix(2504.38,0,0,348.208,11.1254,333.059)"><stop offset="0" style="stop-color:rgb(255,81,0);stop-opacity:1"/><stop offset="1" style="stop-color:rgb(82,0,213);stop-opacity:1"/></linearGradient>
        <linearGradient id="_Linear5" x1="0" y1="0" x2="1" y2="0" gradientUnits="userSpaceOnUse" gradientTransform="matrix(2504.38,0,0,348.208,11.1254,333.059)"><stop offset="0" style="stop-color:rgb(255,81,0);stop-opacity:1"/><stop offset="1" style="stop-color:rgb(82,0,213);stop-opacity:1"/></linearGradient>
        <linearGradient id="_Linear6" x1="0" y1="0" x2="1" y2="0" gradientUnits="userSpaceOnUse" gradientTransform="matrix(2504.38,0,0,348.208,11.1254,333.059)"><stop offset="0" style="stop-color:rgb(255,81,0);stop-opacity:1"/><stop offset="1" style="stop-color:rgb(82,0,213);stop-opacity:1"/></linearGradient>
        <linearGradient id="_Linear7" x1="0" y1="0" x2="1" y2="0" gradientUnits="userSpaceOnUse" gradientTransform="matrix(2504.38,0,0,348.208,11.1254,333.059)"><stop offset="0" style="stop-color:rgb(255,81,0);stop-opacity:1"/><stop offset="1" style="stop-color:rgb(82,0,213);stop-opacity:1"/></linearGradient>
        <linearGradient id="_Linear8" x1="0" y1="0" x2="1" y2="0" gradientUnits="userSpaceOnUse" gradientTransform="matrix(2504.38,0,0,348.208,11.1254,333.059)"><stop offset="0" style="stop-color:rgb(255,81,0);stop-opacity:1"/><stop offset="1" style="stop-color:rgb(82,0,213);stop-opacity:1"/></linearGradient>
        <linearGradient id="_Linear9" x1="0" y1="0" x2="1" y2="0" gradientUnits="userSpaceOnUse" gradientTransform="matrix(2504.38,0,0,348.208,11.1254,333.059)"><stop offset="0" style="stop-color:rgb(255,81,0);stop-opacity:1"/><stop offset="1" style="stop-color:rgb(82,0,213);stop-opacity:1"/></linearGradient>
    </defs>
</svg>
